<?xml version="1.0" standalone="no"?>
<!DOCTYPE svg PUBLIC "-//W3C//DTD SVG 20010904//EN"
 "http://www.w3.org/TR/2001/REC-SVG-20010904/DTD/svg10.dtd">
<svg version="1.0" xmlns="http://www.w3.org/2000/svg"
 width="3674.000000pt" height="421.000000pt" viewBox="0 0 3674.000000 421.000000"
 preserveAspectRatio="xMidYMid meet">

<g transform="translate(0.000000,421.000000) scale(0.100000,-0.100000)"
fill="#000000" stroke="none">
<path d="M21750 3960 c-146 -15 -280 -81 -397 -195 l-83 -80 0 107 c0 60 -3
108 -7 108 -23 0 -122 -69 -182 -125 -77 -73 -151 -174 -205 -282 -52 -105
-124 -318 -156 -468 l-28 -130 -1 352 c-1 203 -5 354 -10 358 -12 7 -40 -32
-81 -115 -141 -280 -220 -689 -236 -1220 -15 -505 40 -989 150 -1324 46 -139
122 -300 156 -331 20 -18 20 -15 21 351 1 352 1 365 15 289 31 -173 103 -396
175 -539 79 -159 200 -298 320 -369 l64 -37 3 111 3 111 87 -84 c132 -127 291
-197 445 -198 51 0 57 2 57 21 0 16 4 19 18 14 116 -46 341 -46 500 1 18 5 22
2 22 -16 0 -22 2 -23 83 -17 163 11 302 75 433 199 l74 71 0 -102 c0 -78 3
-101 13 -101 26 0 136 79 196 140 106 107 190 253 256 441 40 114 89 303 102
395 5 41 10 -54 13 -314 3 -204 9 -373 14 -375 13 -3 101 165 137 263 75 203
129 477 155 785 23 264 15 826 -15 1067 -28 227 -63 397 -117 558 -45 135
-138 330 -161 338 -10 3 -13 -77 -14 -375 l0 -378 -30 145 c-72 352 -192 606
-360 765 -66 61 -160 125 -186 125 -10 0 -13 -26 -13 -96 l0 -96 -60 56 c-139
128 -262 184 -447 201 -72 7 -73 7 -73 -17 l0 -24 -72 19 c-102 27 -295 27
-395 0 l-73 -19 0 23 c0 25 2 25 -110 13z"/>
<path d="M310 3861 c0 -5 4 -12 9 -16 18 -11 52 -134 66 -241 31 -236 37 -542
32 -1624 -4 -868 -8 -1091 -20 -1205 -18 -165 -40 -267 -67 -313 -11 -18 -20
-35 -20 -38 0 -2 397 -4 883 -4 933 0 985 3 1178 49 280 66 546 220 694 401
156 191 224 395 212 635 -12 230 -64 380 -185 541 -171 226 -342 328 -902 535
-232 85 -352 141 -396 186 -88 87 -55 213 66 251 71 23 179 41 340 57 343 33
463 56 562 106 123 62 185 148 195 269 5 61 3 75 -21 124 -63 128 -241 222
-516 273 -85 15 -199 17 -1102 20 -661 3 -1008 1 -1008 -6z m1745 -81 c270
-30 369 -126 334 -324 -22 -132 -99 -204 -270 -256 -55 -16 -143 -44 -198 -60
-111 -34 -186 -79 -215 -129 -27 -47 -34 -164 -13 -226 9 -25 30 -64 48 -86
35 -44 152 -138 274 -219 244 -163 396 -292 487 -413 155 -209 224 -465 197
-728 -41 -403 -276 -700 -634 -804 -127 -36 -257 -45 -687 -45 l-388 0 0 1650
0 1650 488 0 c268 0 528 -5 577 -10z"/>
<path d="M4250 3862 c0 -5 9 -26 19 -48 25 -52 47 -159 63 -314 19 -182 19
-2540 0 -2720 -16 -151 -36 -248 -62 -308 -11 -24 -20 -46 -20 -48 0 -2 560
-4 1245 -4 l1245 0 0 160 0 160 -22 -5 c-226 -52 -444 -92 -733 -134 -353 -53
-835 -101 -1003 -101 l-53 0 4 1473 c3 1066 7 1498 16 1567 17 134 37 226 61
274 11 23 20 45 20 49 0 4 -175 7 -390 7 -214 0 -390 -4 -390 -8z"/>
<path d="M7610 3862 c0 -4 7 -17 15 -29 26 -37 55 -169 71 -328 14 -122 18
-341 23 -1185 l7 -1035 27 -99 c78 -289 283 -529 577 -676 102 -51 314 -116
450 -138 175 -29 303 -35 460 -22 699 56 1156 427 1220 990 6 51 10 576 10
1308 l0 1222 -251 0 c-197 0 -250 -3 -246 -12 16 -45 149 -522 198 -715 68
-269 111 -475 136 -658 15 -111 18 -205 18 -645 0 -501 -1 -517 -22 -603 -98
-383 -409 -644 -843 -708 -126 -18 -342 -7 -462 24 -376 98 -606 345 -686 736
-15 78 -17 172 -17 1051 0 1011 5 1165 45 1361 10 49 28 106 39 125 12 19 21
37 21 40 0 2 -178 4 -395 4 -217 0 -395 -3 -395 -8z"/>
<path d="M11620 3856 c0 -8 4 -18 10 -21 19 -12 50 -137 67 -277 16 -131 18
-253 18 -1408 0 -1306 -2 -1378 -41 -1570 -9 -40 -24 -91 -35 -112 -10 -20
-19 -40 -19 -43 0 -3 567 -5 1260 -5 l1260 0 0 161 0 161 -27 -7 c-369 -92
-1226 -212 -1655 -231 l-158 -7 0 861 0 862 785 0 785 0 0 40 0 40 -785 0
-785 0 0 746 0 745 108 -6 c489 -27 993 -92 1491 -191 123 -24 228 -44 232
-44 5 0 9 72 9 160 l0 160 -1260 0 c-1090 0 -1260 -2 -1260 -14z"/>
<path d="M16630 3865 c0 -3 8 -22 19 -43 24 -48 47 -152 61 -277 22 -206 30
-645 30 -1867 l0 -1258 291 0 c273 0 291 1 284 18 -154 371 -329 1009 -414
1512 -55 327 -63 433 -68 980 -3 278 -3 518 -2 533 3 24 168 -206 1084 -1507
l1080 -1535 298 0 c164 -1 297 2 295 7 -51 99 -66 159 -89 367 -9 81 -13 504
-16 1593 l-4 1482 -290 0 c-165 0 -289 -4 -289 -9 0 -5 20 -60 44 -123 157
-407 330 -1089 395 -1558 36 -259 42 -397 39 -911 l-3 -497 -1080 1549 -1080
1549 -292 0 c-161 0 -293 -2 -293 -5z"/>
<path d="M24670 3865 c0 -3 8 -22 19 -43 24 -48 47 -152 61 -277 22 -203 30
-680 30 -1887 l0 -1238 291 0 c273 0 291 1 284 18 -167 402 -364 1144 -434
1637 -40 281 -43 339 -47 920 l-4 580 22 -41 c13 -23 388 -732 833 -1577 l810
-1537 40 0 41 0 639 1458 c351 801 642 1464 647 1472 13 24 3 -2405 -11 -2535
-23 -218 -41 -293 -89 -387 -2 -5 174 -8 392 -8 218 0 396 2 396 4 0 3 -9 20
-20 38 -27 46 -49 148 -67 313 -12 114 -16 337 -20 1205 -5 1082 1 1388 32
1624 14 107 48 230 66 241 34 21 -14 25 -283 23 l-292 -3 -600 -1362 c-330
-750 -602 -1363 -605 -1363 -3 0 -336 615 -740 1365 l-734 1365 -329 0 c-180
0 -328 -2 -328 -5z"/>
<path d="M30193 2163 c-337 -940 -615 -1716 -618 -1725 -7 -17 11 -18 288 -18
l295 0 -18 49 c-43 113 -55 206 -55 431 1 234 13 347 67 621 l30 159 627 0
626 0 94 -268 c261 -743 290 -853 255 -969 l-6 -23 346 0 c190 0 346 2 346 5
0 2 -214 626 -475 1386 -262 760 -500 1461 -531 1558 -86 277 -105 391 -78
479 l6 22 -294 0 -294 0 -611 -1707z m901 479 c168 -480 306 -875 306 -877 0
-3 -270 -5 -599 -5 l-599 0 38 148 c69 263 162 547 355 1084 105 289 191 525
192 525 0 -1 139 -395 307 -875z"/>
<path d="M33510 3862 c0 -5 9 -30 20 -56 27 -59 45 -156 62 -326 19 -194 19
-2486 0 -2675 -17 -166 -38 -279 -63 -329 -10 -22 -19 -44 -19 -48 0 -5 356
-7 793 -6 780 3 794 4 901 26 313 66 555 198 762 414 240 252 387 598 446
1048 18 143 15 519 -5 670 -61 443 -229 778 -499 994 -107 87 -305 185 -451
225 -231 64 -232 64 -1129 68 -498 3 -818 0 -818 -5z m1358 -83 c257 -28 453
-116 607 -273 189 -192 299 -458 357 -871 21 -146 17 -736 -5 -905 -39 -286
-98 -501 -189 -688 -141 -290 -350 -457 -653 -522 -88 -19 -142 -22 -452 -27
l-353 -6 0 1652 0 1651 295 0 c163 0 339 -5 393 -11z"/>
</g>
</svg>
