<?xml version="1.0" encoding="UTF-8" standalone="no"?>
<svg
   xmlns:dc="http://purl.org/dc/elements/1.1/"
   xmlns:cc="http://creativecommons.org/ns#"
   xmlns:rdf="http://www.w3.org/1999/02/22-rdf-syntax-ns#"
   xmlns:svg="http://www.w3.org/2000/svg"
   xmlns="http://www.w3.org/2000/svg"
   viewBox="0 0 1784 221.53867"
   height="221.53867"
   width="1784"
   xml:space="preserve"
   id="svg2"
   version="1.1"><metadata
     id="metadata8"><rdf:RDF><cc:Work
         rdf:about=""><dc:format>image/svg+xml</dc:format><dc:type
           rdf:resource="http://purl.org/dc/dcmitype/StillImage" /></cc:Work></rdf:RDF></metadata><defs
     id="defs6"><clipPath
       id="clipPath18"
       clipPathUnits="userSpaceOnUse"><path
         id="path16"
         d="M 0,166.154 H 1338 V 0 H 0 Z" /></clipPath></defs><g
     transform="matrix(1.3333333,0,0,-1.3333333,0,221.53867)"
     id="g10"><g
       id="g12"><g
         clip-path="url(#clipPath18)"
         id="g14"><g
           transform="translate(61.7881,23.9238)"
           id="g20"><path
             id="path22"
             style="fill:#100f0d;fill-opacity:1;fill-rule:nonzero;stroke:none"
             d="m 0,0 c 7.679,0 14.145,1.711 19.399,5.136 5.253,3.423 9.093,7.788 11.518,13.09 2.424,5.302 3.637,10.77 3.637,16.404 0,6.628 -1.213,12.316 -3.637,17.067 -2.425,4.748 -5.254,8.559 -8.487,11.433 -3.234,2.871 -7.344,5.965 -12.327,9.279 -4.581,2.982 -7.915,5.522 -10.002,7.622 -2.09,2.097 -3.132,4.528 -3.132,7.29 0,3.314 1.01,5.635 3.031,6.96 2.021,1.325 5.052,2.485 9.093,3.479 3.097,0.772 5.588,1.546 7.477,2.32 1.884,0.772 3.466,2.043 4.748,3.811 1.279,1.766 1.92,4.197 1.92,7.291 0,3.534 -1.516,6.019 -4.547,7.456 -3.031,1.434 -7.445,2.154 -13.235,2.154 h -34.15 L -28.492,0 Z m -52.942,-2.486 v 0.331 c 1.345,1.435 2.324,5.246 2.93,11.434 0.606,6.185 0.909,13.31 0.909,21.375 v 59.65 c 0,8.062 -0.303,15.187 -0.909,21.375 -0.606,6.185 -1.585,9.996 -2.93,11.433 v 0.331 h 63.45 c 7.946,0 14.378,-0.745 19.297,-2.237 4.916,-1.491 8.417,-3.288 10.508,-5.385 2.087,-2.099 3.132,-4.199 3.132,-6.296 0,-3.757 -1.247,-6.657 -3.739,-8.699 -2.494,-2.045 -5.49,-3.426 -8.992,-4.142 -3.504,-0.72 -7.95,-1.3 -13.336,-1.741 C 11.044,94.389 6.397,93.673 3.435,92.789 0.47,91.904 -1.01,90.081 -1.01,87.321 c 0,-2.431 1.345,-4.39 4.041,-5.882 2.693,-1.491 7.003,-3.288 12.932,-5.385 7.812,-2.762 14.347,-5.525 19.601,-8.285 5.254,-2.762 9.832,-6.85 13.741,-12.261 3.905,-5.414 5.86,-12.373 5.86,-20.878 0,-6.188 -1.92,-12.124 -5.759,-17.812 C 45.566,11.127 39.808,6.488 32.129,2.9 24.45,-0.691 15.155,-2.486 4.243,-2.486 Z" /></g><g
           transform="translate(177.1691,24.0894)"
           id="g24"><path
             id="path26"
             style="fill:#100f0d;fill-opacity:1;fill-rule:nonzero;stroke:none"
             d="M 0,0 C 9.968,0.22 21.486,1.243 34.554,3.065 47.619,4.888 58.262,6.794 66.48,8.782 V -2.651 h -90.93 v 0.331 c 1.345,1.434 2.324,5.246 2.93,11.433 0.606,6.185 0.909,13.31 0.909,21.375 v 59.651 c 0,8.062 -0.303,15.187 -0.909,21.374 -0.606,6.186 -1.585,9.996 -2.93,11.433 v 0.332 H 3.839 v -0.332 C 2.491,121.509 1.516,117.699 0.909,111.513 0.303,105.326 0,98.201 0,90.139 Z" /></g><g
           transform="translate(305.2825,23.4266)"
           id="g28"><path
             id="path30"
             style="fill:#100f0d;fill-opacity:1;fill-rule:nonzero;stroke:none"
             d="m 0,0 c -7.679,3.091 -13.876,7.759 -18.59,14.001 -4.717,6.24 -7.073,13.945 -7.073,23.115 v 53.686 c 0,8.062 -0.303,15.186 -0.909,21.374 -0.606,6.185 -1.585,9.996 -2.93,11.433 v 0.331 h 28.29 v -0.331 c -1.349,-1.437 -2.324,-5.248 -2.93,-11.433 -0.607,-6.188 -0.91,-13.312 -0.91,-21.374 V 39.104 C -5.052,30.488 -3.369,23.363 0,17.729 3.366,12.096 7.811,7.953 13.336,5.302 18.859,2.651 24.921,1.326 31.523,1.326 c 6.598,0 12.831,1.325 18.691,3.976 5.86,2.651 10.609,6.682 14.246,12.096 3.637,5.411 5.456,11.985 5.456,19.718 v 22.203 c 0,8.948 -1.146,18.419 -3.436,28.417 -2.292,9.996 -5.121,20.683 -8.486,32.062 l -1.213,4.142 H 74.563 V 37.116 c 0,-9.17 -2.324,-16.875 -6.971,-23.115 C 62.944,7.759 56.813,3.091 49.204,0 41.591,-3.091 33.408,-4.64 24.652,-4.64 15.894,-4.64 7.679,-3.091 0,0" /></g><g
           transform="translate(514.0177,147.3669)"
           id="g32"><path
             id="path34"
             style="fill:#100f0d;fill-opacity:1;fill-rule:nonzero;stroke:none"
             d="m 0,0 v -11.433 c -8.487,1.989 -19.367,3.92 -32.634,5.799 -13.27,1.877 -24.823,2.872 -34.655,2.983 v -54.845 h 57.387 v -2.651 h -57.387 v -63.131 c 9.832,0.109 21.385,1.103 34.655,2.983 13.267,1.877 24.147,3.811 32.634,5.799 v -11.433 h -91.739 v 0.331 c 1.345,1.435 2.324,5.246 2.93,11.434 0.606,6.185 0.909,13.309 0.909,21.375 v 59.65 c 0,8.062 -0.303,15.187 -0.909,21.375 -0.606,6.185 -1.585,9.996 -2.93,11.433 V 0 Z" /></g><g
           transform="translate(709.4148,54.5775)"
           id="g36"><path
             id="path38"
             style="fill:#100f0d;fill-opacity:1;fill-rule:nonzero;stroke:none"
             d="m 0,0 c 0,-8.065 0.303,-15.19 0.909,-21.375 0.607,-6.187 1.582,-9.999 2.93,-11.433 v -0.331 H -17.176 L -96.791,79.865 V 48.383 c 0,-11.598 1.885,-25.517 5.658,-41.755 3.77,-16.238 7.811,-29.494 12.124,-39.767 h -21.015 v 92.79 c 0,8.062 -0.303,15.186 -0.909,21.374 -0.606,6.185 -1.585,9.996 -2.93,11.433 v 0.331 h 21.015 L -3.233,-21.375 v 32.642 c 0,11.599 -1.888,25.518 -5.658,41.756 -3.773,16.238 -7.814,29.494 -12.124,39.766 H 0 Z" /></g><g
           transform="translate(1042.4213,147.0358)"
           id="g40"><path
             id="path42"
             style="fill:#100f0d;fill-opacity:1;fill-rule:nonzero;stroke:none"
             d="m 0,0 c -1.348,-1.437 -2.324,-5.248 -2.93,-11.433 -0.606,-6.188 -0.909,-13.313 -0.909,-21.375 v -59.65 c 0,-8.065 0.303,-15.19 0.909,-21.375 0.606,-6.188 1.582,-9.999 2.93,-11.434 v -0.331 h -28.29 v 0.331 c 1.346,1.435 2.324,5.246 2.93,11.434 0.607,6.185 0.91,13.31 0.91,21.375 v 75.557 l -47.688,-108.697 h -2.425 L -135.79,-9.445 v -34.63 c 0,-11.599 1.885,-25.517 5.658,-41.756 3.77,-16.238 7.811,-29.493 12.124,-39.767 h -21.015 v 92.79 c 0,8.062 -0.303,15.187 -0.909,21.375 -0.606,6.185 -1.585,9.996 -2.93,11.433 v 0.331 h 23.642 L -65.066,-100.246 -20.813,0.331 H 0 Z" /></g><g
           transform="translate(1145.8787,70.3183)"
           id="g44"><path
             id="path46"
             style="fill:#100f0d;fill-opacity:1;fill-rule:nonzero;stroke:none"
             d="M 0,0 -22.834,65.119 -35.766,29.329 C -39.539,18.281 -42.435,8.505 -44.455,0 Z M 38.595,-48.88 H 13.538 v 0.331 c 0.537,0.441 0.809,1.434 0.809,2.983 0,2.54 -0.708,6.073 -2.122,10.604 -1.414,4.529 -3.47,10.494 -6.163,17.896 L 1.01,-2.651 h -46.071 c -2.561,-11.599 -3.84,-21.266 -3.84,-28.997 0,-7.182 0.941,-12.924 2.829,-17.232 h -21.015 l 45.061,125.929 h 21.218 v -0.331 c -0.54,-0.554 -0.809,-1.549 -0.809,-2.983 0,-2.542 0.638,-5.965 1.92,-10.273 1.279,-4.308 3.265,-10.439 5.961,-18.393 z" /></g><g
           transform="translate(1267.1189,23.9238)"
           id="g48"><path
             id="path50"
             style="fill:#100f0d;fill-opacity:1;fill-rule:nonzero;stroke:none"
             d="m 0,0 c 14.549,0 25.088,5.468 31.624,16.404 6.532,10.936 9.8,26.62 9.8,47.057 0,38.219 -13.81,57.331 -41.424,57.331 H -20.005 V 0 Z m -44.455,-2.486 v 0.331 c 1.345,1.435 2.324,5.246 2.93,11.434 0.606,6.185 0.909,13.31 0.909,21.375 v 59.65 c 0,8.062 -0.303,15.187 -0.909,21.375 -0.606,6.185 -1.585,9.996 -2.93,11.433 v 0.331 H 6.062 c 18.859,0 32.902,-5.219 42.131,-15.658 C 57.419,97.346 62.035,82.571 62.035,63.461 62.035,50.977 59.913,39.767 55.67,29.825 51.426,19.883 44.925,12.013 36.17,6.214 c -8.758,-5.8 -19.534,-8.7 -32.331,-8.7 z" /></g><g
           transform="translate(793.658,15.2171)"
           id="g52"><path
             id="path54"
             style="fill:#100f0d;fill-opacity:1;fill-rule:nonzero;stroke:none"
             d="m 0,0 c -1.365,0.295 -2.733,0.576 -4.094,0.887 -3.705,0.846 -6.962,2.595 -9.798,5.082 -1.364,1.196 -2.552,2.591 -3.819,3.897 -0.25,0.258 -0.495,0.523 -0.97,0.714 V 2.436 c -0.636,0.333 -1.051,0.552 -1.467,0.769 -3.652,1.904 -6.466,4.754 -8.881,8.009 -2.637,3.556 -4.66,7.455 -6.098,11.646 -0.736,2.144 -1.525,4.274 -2.144,6.452 -0.878,3.094 -1.642,6.219 -2.056,9.42 -0.139,1.08 -0.431,2.14 -0.8,3.205 V 13.091 c -0.34,0.331 -0.513,0.446 -0.614,0.606 -2.203,3.479 -3.894,7.201 -5.147,11.116 -0.783,2.449 -1.565,4.907 -2.16,7.406 -0.64,2.682 -1.084,5.413 -1.569,8.131 -0.325,1.825 -0.634,3.657 -0.838,5.498 -0.297,2.671 -0.483,5.355 -0.733,8.032 -0.382,4.089 -0.325,8.191 -0.394,12.29 -0.076,4.476 0.005,8.948 0.193,13.416 0.108,2.569 0.44,5.129 0.686,7.692 0.169,1.77 0.313,3.545 0.557,5.305 0.302,2.175 0.613,4.356 1.073,6.502 0.649,3.033 1.337,6.065 2.192,9.045 1.351,4.707 3.192,9.226 5.752,13.426 0.118,0.194 0.247,0.382 0.373,0.57 0.102,0.153 0.208,0.303 0.401,0.582 0.113,-0.306 0.228,-0.484 0.237,-0.669 0.027,-0.531 0.013,-1.064 0.013,-1.596 0.002,-8.476 0.003,-16.952 0.005,-25.429 0,-0.283 0,-0.566 0.12,-0.858 0.221,1.025 0.455,2.048 0.66,3.077 0.505,2.523 0.845,5.091 1.531,7.564 0.889,3.204 1.969,6.362 3.117,9.485 1.313,3.573 3.124,6.907 5.367,9.992 2.531,3.482 5.575,6.405 9.392,8.466 0.264,0.142 0.54,0.262 0.818,0.376 0.054,0.022 0.141,-0.034 0.376,-0.098 v -7.722 c 0.093,-0.04 0.185,-0.079 0.278,-0.119 0.263,0.283 0.544,0.551 0.788,0.849 3.144,3.845 6.979,6.729 11.712,8.324 1.722,0.58 3.473,1.087 5.326,1.111 0.79,0.011 1.576,0.172 2.366,0.235 0.291,0.024 0.589,-0.038 0.934,-0.065 0.055,-0.532 0.104,-1.01 0.172,-1.662 6.631,2.317 13.234,2.36 19.875,-0.026 0.037,0.385 0.063,0.639 0.085,0.894 0.019,0.225 0.033,0.451 0.061,0.84 4.171,0.088 8.116,-0.735 11.851,-2.533 3.717,-1.79 6.688,-4.519 9.511,-7.599 v 7.76 c 0.488,-0.203 0.792,-0.306 1.073,-0.451 3.331,-1.713 6.062,-4.148 8.428,-7.018 2.603,-3.158 4.598,-6.682 6.096,-10.473 1.001,-2.534 1.923,-5.107 2.712,-7.714 0.656,-2.167 1.105,-4.4 1.575,-6.619 0.423,-1.996 0.742,-4.013 1.121,-6.018 0.054,-0.283 0.188,-0.55 0.459,-0.798 v 28.807 c 0.815,-0.734 1.167,-1.488 1.56,-2.176 2.571,-4.502 4.357,-9.329 5.705,-14.312 0.75,-2.772 1.371,-5.588 1.871,-8.416 0.507,-2.868 0.842,-5.771 1.163,-8.668 0.326,-2.936 0.587,-5.88 0.791,-8.826 0.168,-2.422 0.278,-4.851 0.295,-7.277 0.03,-4.408 0.037,-8.819 -0.073,-13.225 -0.079,-3.143 -0.301,-6.286 -0.577,-9.419 -0.29,-3.279 -0.585,-6.568 -1.125,-9.812 -0.634,-3.807 -1.405,-7.603 -2.352,-11.345 -1.181,-4.667 -2.873,-9.171 -5.14,-13.437 -0.558,-1.05 -1.228,-2.04 -1.833,-3.036 -0.177,0.074 -0.22,0.08 -0.244,0.105 -0.024,0.026 -0.033,0.068 -0.041,0.105 -0.015,0.074 -0.034,0.149 -0.034,0.224 -0.002,9.425 -0.002,18.85 -0.208,28.321 -0.097,-0.414 -0.22,-0.825 -0.287,-1.244 C 64.581,36.884 63.87,33.216 62.881,29.595 62.162,26.961 61.381,24.354 60.378,21.817 58.837,17.921 56.946,14.207 54.406,10.856 52.018,7.705 49.18,5.047 45.692,3.13 45.427,2.984 45.152,2.853 44.876,2.728 44.745,2.668 44.601,2.637 44.287,2.537 v 7.726 C 44.21,10.286 44.132,10.309 44.054,10.332 43.855,10.134 43.638,9.95 43.457,9.736 41.263,7.13 38.776,4.87 35.78,3.205 33.172,1.756 30.414,0.757 27.441,0.376 26.884,0.305 26.34,0.128 25.79,0 H 22.823 C 22.805,0.578 22.788,1.155 22.768,1.786 22.475,1.718 22.326,1.698 22.187,1.65 20.44,1.044 18.681,0.5 16.824,0.333 16.383,0.293 15.954,0.115 15.52,0 H 10.042 C 9.901,0.051 9.763,0.128 9.618,0.148 7.444,0.46 5.302,0.896 3.245,1.69 3.152,1.726 3.029,1.685 2.829,1.676 2.799,1.113 2.769,0.556 2.739,0 Z" /></g></g></g></g></svg>