<?xml version="1.0" encoding="UTF-8"?>
<svg width="332px" height="86px" viewBox="0 0 332 86" version="1.1" xmlns="http://www.w3.org/2000/svg" xmlns:xlink="http://www.w3.org/1999/xlink">
    <!-- Generator: Sketch 55.1 (78136) - https://sketchapp.com -->
    <title>logo_attitude_2020</title>
    <desc>Created with Sketch.</desc>
    <g id="Page-1" stroke="none" stroke-width="1" fill="none" fill-rule="evenodd">
        <g id="logo_attitude_2020" fill="#231F20" fill-rule="nonzero">
            <path d="M297.01,44.4 L297.01,39.04 L277.73,39.04 L277.73,34.22 L293.54,34.22 L293.54,28.86 L277.78,28.86 L277.78,24.67 L297.01,24.67 L297.01,19.26 L271.43,19.26 L271.43,44.39 L297.01,44.39 L297.01,44.4 Z M230.09,44.4 L230.09,19.27 L244.83,19.27 C254.06,19.27 260.81,22.02 260.81,31.84 C260.81,41.66 254.07,44.41 244.83,44.41 L230.09,44.41 L230.09,44.4 Z M244.83,39.04 C248.88,39.04 254.05,38.45 254.05,31.83 C254.05,25.21 248.88,24.67 244.83,24.67 L236.4,24.67 L236.4,39.04 L244.83,39.04 Z M212.48,32.87 C212.48,38.23 208.61,39.94 204.6,39.94 C200.64,39.94 196.81,38.23 196.81,32.87 L196.81,19.27 L190.5,19.27 L190.5,32.87 C190.5,41.47 196.54,45.3 204.6,45.3 C212.66,45.3 218.79,41.47 218.79,32.87 L218.79,19.27 L212.49,19.27 L212.49,32.87 L212.48,32.87 Z M170.46,44.4 L170.46,24.67 L181.94,24.67 L181.94,19.26 L152.76,19.26 L152.76,24.67 L164.15,24.67 L164.15,44.4 L170.46,44.4 Z M137.4,44.4 L143.7,44.4 L143.7,19.27 L137.4,19.27 L137.4,44.4 Z M116.86,44.4 L116.86,24.67 L128.34,24.67 L128.34,19.26 L99.16,19.26 L99.16,24.67 L110.55,24.67 L110.55,44.4 L116.86,44.4 Z M78.67,44.4 L78.67,24.67 L90.15,24.67 L90.15,19.26 L60.97,19.26 L60.97,24.67 L72.36,24.67 L72.36,44.4 L78.67,44.4 Z M52.37,44.4 L50.03,40.48 L35.93,40.48 L33.59,44.4 L26.25,44.4 L43,18.37 L59.75,44.4 L52.37,44.4 Z M43,28.6 L39.13,35.09 L46.83,35.09 L43,28.6 Z" id="Shape"/>
            <path d="M0.84,62.07 L331.12,62.07 L331.12,0.36 L0.84,0.36 L0.84,62.07 Z M5.8,5.33 L326.14,5.33 L326.14,57.1 L5.8,57.1 L5.8,5.33 Z" id="Shape"/>
            <path d="M266.75,80.25 L266.75,85.2 L271.77,85.2 L271.77,84.14 L268.08,84.14 L268.08,83.2 L271.08,83.2 L271.08,82.23 L268.08,82.23 L268.08,81.29 L271.77,81.29 L271.77,80.24 L266.75,80.24 L266.75,80.25 Z M256.49,85.2 L257.82,85.2 L257.82,82.41 L262.19,85.4 L262.19,80.25 L260.86,80.25 L260.86,83.04 L256.49,80.05 L256.49,85.2 Z M250.61,85.2 L251.94,85.2 L251.94,80.25 L250.61,80.25 L250.61,85.2 Z M241.26,80.25 L241.26,81.41 L244,81.41 L240.84,85.21 L246.64,85.21 L246.64,84.06 L243.36,84.06 L246.51,80.26 L241.26,80.26 L241.26,80.25 Z M234.36,80.05 L237.83,85.2 L236.35,85.2 L235.93,84.6 L232.79,84.6 L232.37,85.2 L230.89,85.2 L234.36,80.05 Z M233.48,83.62 L235.24,83.62 L234.36,82.37 L233.48,83.62 Z M226.32,83.46 C225.86,84.1 225.06,84.23 224.53,84.23 C223.35,84.23 222.51,83.55 222.51,82.73 C222.51,81.9 223.35,81.25 224.53,81.25 C224.75,81.25 224.97,81.27 225.19,81.3 C225.84,81.4 226.45,81.65 226.88,81.92 L226.88,80.75 C226.22,80.29 225.38,80.06 224.53,80.06 C222.65,80.06 221.08,81.27 221.08,82.73 C221.08,84.18 222.66,85.4 224.53,85.4 C226.12,85.4 227.83,84.39 227.83,82.72 C227.83,82.64 227.82,82.56 227.81,82.47 L224.66,82.47 L224.66,83.46 L226.32,83.46 Z M214.44,80.05 L217.91,85.2 L216.43,85.2 L216.01,84.6 L212.87,84.6 L212.46,85.2 L210.98,85.2 L214.44,80.05 Z M213.56,83.62 L215.32,83.62 L214.44,82.37 L213.56,83.62 Z M203.57,83.34 L201.24,80.05 L199.19,85.2 L200.59,85.2 L201.55,82.58 L203.57,85.4 L205.6,82.58 L206.56,85.2 L207.96,85.2 L205.91,80.05 L203.57,83.34 Z M183.27,85.2 L184.6,85.2 L184.6,82.41 L188.97,85.4 L188.97,80.25 L187.64,80.25 L187.64,83.04 L183.27,80.05 L183.27,85.2 Z M177.61,83.46 C177.15,84.1 176.35,84.23 175.82,84.23 C174.64,84.23 173.8,83.55 173.8,82.73 C173.8,81.9 174.64,81.25 175.82,81.25 C176.04,81.25 176.26,81.27 176.48,81.3 C177.13,81.4 177.74,81.65 178.17,81.92 L178.17,80.75 C177.51,80.29 176.67,80.06 175.82,80.06 C173.94,80.06 172.37,81.27 172.37,82.73 C172.37,84.18 173.95,85.4 175.82,85.4 C177.41,85.4 179.12,84.39 179.12,82.72 C179.12,82.64 179.11,82.56 179.1,82.47 L175.95,82.47 L175.95,83.46 L177.61,83.46 Z M166.78,85.2 L168.11,85.2 L168.11,80.25 L166.78,80.25 L166.78,85.2 Z M162.04,80.4 C161.46,80.21 160.87,80.05 160.1,80.05 C158.8,80.05 157.28,80.22 157.28,81.63 C157.28,83.95 161.13,82.97 161.13,83.74 C161.13,84.09 160.66,84.22 159.58,84.22 C158.89,84.22 157.89,84.01 157.21,83.84 L157.21,85.09 C157.89,85.25 158.75,85.39 159.63,85.39 C161.21,85.39 162.5,85.12 162.5,83.73 C162.5,81.49 158.65,82.43 158.65,81.62 C158.65,81.22 159.45,81.22 160.1,81.22 C160.8,81.22 161.37,81.34 161.99,81.57 L162.04,80.4 Z M148.23,80.25 L148.23,85.2 L153.25,85.2 L153.25,84.14 L149.56,84.14 L149.56,83.2 L152.56,83.2 L152.56,82.23 L149.56,82.23 L149.56,81.29 L153.25,81.29 L153.25,80.24 L148.23,80.24 L148.23,80.25 Z M140.8,85.2 C142.09,85.2 143.98,84.66 143.98,82.72 C143.98,80.79 142.09,80.24 140.8,80.24 L137.81,80.24 L137.81,85.19 L140.8,85.19 L140.8,85.2 Z M139.14,84.05 L139.14,81.41 L140.63,81.41 C141.34,81.41 142.54,81.5 142.54,82.73 C142.54,83.96 141.34,84.05 140.63,84.05 L139.14,84.05 Z M127.1,85.2 L126.04,83.58 C126.74,83.23 126.98,82.53 126.98,82.02 C126.98,81.32 126.53,80.24 124.96,80.24 L121.5,80.24 L121.5,85.19 L122.83,85.19 L122.83,83.8 L124.71,83.8 L125.62,85.19 L127.1,85.19 L127.1,85.2 Z M124.76,81.43 C125.46,81.43 125.56,81.78 125.56,82.02 C125.56,82.28 125.46,82.62 124.76,82.62 L122.84,82.62 L122.84,81.43 L124.76,81.43 Z M113.79,85.4 C115.68,85.4 117.24,84.38 117.24,82.73 C117.24,81.06 115.68,80.06 113.79,80.06 C111.91,80.06 110.34,81.07 110.34,82.73 C110.34,84.38 111.92,85.4 113.79,85.4 L113.79,85.4 Z M113.79,81.23 C114.97,81.23 115.81,81.81 115.81,82.73 C115.81,83.64 114.97,84.23 113.79,84.23 C112.61,84.23 111.77,83.64 111.77,82.73 C111.77,81.81 112.61,81.23 113.79,81.23 L113.79,81.23 Z M104.75,85.2 L106.08,85.2 L106.08,80.25 L104.75,80.25 L104.75,85.2 Z M100.45,85.2 L99.4,83.58 C100.1,83.23 100.34,82.53 100.34,82.02 C100.34,81.32 99.89,80.24 98.32,80.24 L94.86,80.24 L94.86,85.19 L96.19,85.19 L96.19,83.8 L98.07,83.8 L98.98,85.19 L100.45,85.19 L100.45,85.2 Z M98.11,81.43 C98.81,81.43 98.91,81.78 98.91,82.02 C98.91,82.28 98.81,82.62 98.11,82.62 L96.19,82.62 L96.19,81.43 L98.11,81.43 Z M85.52,80.25 L85.52,85.2 L90.54,85.2 L90.54,84.14 L86.85,84.14 L86.85,83.2 L89.85,83.2 L89.85,82.23 L86.85,82.23 L86.85,81.29 L90.54,81.29 L90.54,80.24 L85.52,80.24 L85.52,80.25 Z M75.77,80.25 L75.77,81.41 L77.98,81.41 L77.98,85.21 L79.31,85.21 L79.31,81.41 L81.51,81.41 L81.51,80.25 L75.77,80.25 Z M66.07,85.2 L67.4,85.2 L67.4,82.41 L71.77,85.4 L71.77,80.25 L70.44,80.25 L70.44,83.04 L66.07,80.05 L66.07,85.2 Z M60.18,80.25 L61.51,80.25 L61.51,85.2 L60.18,85.2 L60.18,80.25 Z" id="Shape"/>
        </g>
    </g>
</svg>