<svg width="2139.105" xmlns="http://www.w3.org/2000/svg" height="593" fill="none"><g xml:space="preserve" style="fill: rgb(0, 0, 0);"><path d="M1454.309,293.000L1452.679,293.000C1402.137,293.000,1370.754,315.420,1370.754,367.592L1370.754,518.408C1370.754,570.580,1402.137,593.000,1452.679,593.000L1454.309,593.000C1504.852,593.000,1536.234,570.580,1536.234,518.408L1536.234,367.592C1536.234,315.420,1504.852,293.000,1454.309,293.000ZZM1476.318,516.366C1476.318,532.672,1468.980,542.858,1454.309,542.858L1452.679,542.858C1438.009,542.858,1430.671,532.672,1430.671,516.366L1430.671,369.629C1430.671,353.328,1438.009,343.136,1452.679,343.136L1454.309,343.136C1468.985,343.136,1476.318,353.328,1476.318,369.629L1476.318,516.366ZZ" class="fills"/><path d="M1665.848,465.011L1665.030,465.011L1634.465,296.260L1554.983,296.260L1554.983,589.734L1612.857,589.734L1612.857,488.650L1612.045,405.501L1612.857,405.501L1645.469,589.734L1683.372,589.734L1715.984,405.501L1716.796,405.501L1715.984,488.650L1715.984,589.734L1775.088,589.734L1775.088,296.260L1695.606,296.260Z" class="fills"/><path d="M1838.671,296.260L1784.051,589.729L1844.780,589.729L1852.118,542.040L1897.770,542.040L1905.108,589.729L1966.654,589.729L1912.034,296.260L1838.671,296.260ZZM1860.273,490.686L1865.163,459.709L1874.538,392.861L1875.355,392.861L1884.730,459.709L1889.620,490.686L1860.273,490.686ZZ" class="fills"/><path d="M2057.547,296.260L1975.622,296.260L1975.622,589.729L2057.547,589.729C2107.678,589.729,2139.066,567.309,2139.066,515.136L2139.066,370.847C2139.066,318.680,2107.678,296.260,2057.547,296.260ZZM2079.150,513.100C2079.150,528.182,2071.812,537.556,2057.954,537.556L2035.534,537.556L2035.534,348.433L2057.954,348.433C2071.812,348.433,2079.150,357.807,2079.150,372.889L2079.150,513.100ZZ" class="fills"/><path d="M1352.258,589.712L1352.258,296.463L1295.470,296.463L1295.470,443.096L1238.671,296.458L1181.894,296.458L1295.454,589.718L1295.470,589.718L1295.470,589.734L1352.258,589.712ZL1352.258,589.712ZL1352.258,589.712ZZ" class="fills"/><path d="M1181.877,296.458L1181.877,589.734L1238.671,589.734L1238.671,296.458" class="fills"/></g><g xml:space="preserve" style="fill: rgb(0, 0, 0);"><path d="M0.000,296.740L59.918,296.740L59.918,172.420L127.991,172.420L127.991,120.241L59.918,120.241L59.918,55.434L132.064,55.434L132.064,3.260L0.000,3.260Z" class="fills"/><path d="M210.730,3.260L150.812,3.260L150.812,296.740L277.580,296.740L277.580,244.566L210.730,244.566Z" class="fills"/><path d="M341.570,3.260L286.948,296.740L347.684,296.740L355.022,249.050L400.675,249.050L408.013,296.740L469.561,296.740L414.940,3.260L341.570,3.260ZZM363.172,197.689L368.063,166.712L377.437,99.863L378.249,99.863L387.623,166.712L392.514,197.689L363.172,197.689ZZ" class="fills"/><path d="M447.547,55.434L497.272,55.434L497.272,296.740L557.195,296.740L557.195,55.434L606.921,55.434L606.921,3.260L447.547,3.260Z" class="fills"/><rect rx="0" ry="0" x="625.67" y="3.26" transform="matrix(1.000000, 0.000000, 0.000000, 1.000000, 0.000000, 0.000000)" width="59.918" height="293.48" class="fills"/><path d="M866.559,204.210C866.559,178.123,856.367,161.004,839.248,150.406C856.778,139.808,866.559,122.689,866.559,96.191L866.559,77.849C866.559,25.675,835.582,3.255,785.851,3.255L704.737,3.255L704.737,296.734L764.654,296.734L764.654,176.087L784.221,176.087C798.891,176.087,806.641,186.273,806.641,202.173L806.641,260.461C806.641,277.173,807.865,288.178,810.719,296.740L870.637,296.740C868.189,288.183,866.559,277.173,866.559,260.461L866.559,204.210ZZM806.641,99.045C806.641,115.346,798.897,125.132,784.221,125.132L764.654,125.132L764.654,53.804L784.221,53.804C798.891,53.804,806.641,63.996,806.641,80.703L806.641,99.045ZZ" class="fills"/><path d="M968.458,0.000L966.828,0.000C916.284,0.000,884.896,22.415,884.896,74.588L884.896,225.406C884.896,277.580,916.284,300.000,966.828,300.000L968.458,300.000C1019.001,300.000,1050.390,277.580,1050.390,225.406L1050.390,74.588C1050.390,22.415,1019.007,0.000,968.458,0.000ZZM990.472,223.370C990.472,239.676,983.134,249.863,968.463,249.863L966.833,249.863C952.157,249.863,944.824,239.676,944.824,223.370L944.824,76.630C944.824,60.329,952.162,50.137,966.833,50.137L968.463,50.137C983.139,50.137,990.472,60.329,990.472,76.630L990.472,223.370ZZ" class="fills"/><path d="M1238.694,296.740L1125.104,3.474L1125.099,3.474L1125.099,3.469L1068.310,3.469L1068.310,296.745L1125.099,296.745L1125.099,150.060L1181.915,296.740Z" class="fills"/><path d="M1238.694,296.740L1238.694,3.469L1181.899,3.469L1181.899,296.740" class="fills"/></g></svg>