<?xml version="1.0" encoding="UTF-8"?>
<!-- Generator: Adobe Illustrator 26.2.1, SVG Export Plug-In . SVG Version: 6.00 Build 0)  -->
<svg version="1.1" id="Layer_1" xmlns="http://www.w3.org/2000/svg" xmlns:xlink="http://www.w3.org/1999/xlink" x="0px" y="0px" viewBox="0 0 3897.45 546.6" style="enable-background:new 0 0 3897.45 546.6;" xml:space="preserve">
<g>
	<g>
		<g>
			<g>
				<polygon points="0,540.66 109.17,540.66 109.17,314.15 233.2,314.15 233.2,219.08 109.17,219.08 109.17,101 240.62,101       240.62,5.94 0,5.94     "/>
				<polygon points="383.95,5.94 274.78,5.94 274.78,540.66 505.75,540.66 505.75,445.6 383.95,445.6     "/>
				<path d="M622.34,5.94l-99.52,534.72h110.66l13.37-86.89h83.18l13.37,86.89h112.14L756.02,5.94H622.34z M661.7,360.19l8.91-56.44      l17.08-121.8h1.48l17.08,121.8l8.91,56.44H661.7z"/>
				<polygon points="815.43,101 906.03,101 906.03,540.66 1015.21,540.66 1015.21,101 1105.81,101 1105.81,5.94 815.43,5.94     "/>
				<rect x="1139.97" y="5.94" width="109.17" height="534.72"/>
				<path d="M1578.87,372.07c0-47.53-18.57-78.72-49.76-98.03c31.94-19.31,49.76-50.5,49.76-98.78v-33.42      c0-95.06-56.44-135.91-147.05-135.91h-147.79v534.72h109.17V320.83h35.65c26.73,0,40.85,18.56,40.85,47.53v106.2      c0,30.45,2.23,50.5,7.43,66.1h109.17c-4.46-15.59-7.43-35.65-7.43-66.1V372.07z M1469.7,180.46c0,29.7-14.11,47.53-40.85,47.53      h-35.65V98.03h35.65c26.73,0,40.85,18.57,40.85,49.01V180.46z"/>
				<path d="M1764.53,0h-2.97c-92.09,0-149.28,40.84-149.28,135.9v274.79c0,95.06,57.19,135.91,149.28,135.91h2.97      c92.09,0,149.28-40.85,149.28-135.91V135.9C1913.81,40.84,1856.63,0,1764.53,0z M1804.64,406.98c0,29.71-13.37,48.27-40.1,48.27      h-2.97c-26.74,0-40.1-18.56-40.1-48.27V139.62c0-29.7,13.37-48.27,40.1-48.27h2.97c26.74,0,40.1,18.57,40.1,48.27V406.98z"/>
				<polygon points="2256.9,540.66 2049.94,6.33 2049.93,6.33 2049.93,6.32 1946.46,6.32 1946.46,540.67 2049.93,540.67       2049.93,273.41 2153.45,540.66     "/>
			</g>
			<polyline points="2256.9,540.66 2256.9,6.32 2153.42,6.32 2153.42,540.66    "/>
		</g>
	</g>
</g>
</svg>