<?xml version="1.0" encoding="UTF-8"?>
<!-- Generator: Adobe Illustrator 26.2.1, SVG Export Plug-In . SVG Version: 6.00 Build 0)  -->
<svg version="1.1" id="Layer_1" xmlns="http://www.w3.org/2000/svg" xmlns:xlink="http://www.w3.org/1999/xlink" x="0px" y="0px" viewBox="0 0 3897.45 546.6" style="enable-background:new 0 0 3897.45 546.6;" xml:space="preserve">
<g>
	<g>
		<g>
			<path d="M2649.8,0h-2.97c-92.09,0-149.27,40.85-149.27,135.91v274.79c0,95.06,57.18,135.91,149.27,135.91h2.97     c92.09,0,149.27-40.85,149.27-135.91V135.91C2799.07,40.85,2741.89,0,2649.8,0z M2689.9,406.98c0,29.71-13.37,48.27-40.1,48.27     h-2.97c-26.73,0-40.1-18.56-40.1-48.27V139.62c0-29.7,13.37-48.27,40.1-48.27h2.97c26.74,0,40.1,18.57,40.1,48.27V406.98z"/>
			<polygon points="3035.23,313.41 3033.74,313.41 2978.05,5.94 2833.23,5.94 2833.23,540.66 2938.68,540.66 2938.68,356.48      2937.2,204.98 2938.68,204.98 2998.1,540.66 3067.16,540.66 3126.58,204.98 3128.06,204.98 3126.58,356.48 3126.58,540.66      3234.27,540.66 3234.27,5.94 3089.45,5.94    "/>
			<path d="M3350.12,5.94l-99.52,534.71h110.65l13.37-86.89h83.18l13.37,86.89h112.14L3483.79,5.94H3350.12z M3389.48,360.19     l8.91-56.44l17.08-121.8h1.49l17.08,121.8l8.91,56.44H3389.48z"/>
			<path d="M3748.92,5.94h-149.27v534.71h149.27c91.34,0,148.53-40.85,148.53-135.91v-262.9     C3897.45,46.79,3840.26,5.94,3748.92,5.94z M3788.28,401.03c0,27.48-13.37,44.56-38.62,44.56h-40.85V101h40.85     c25.25,0,38.62,17.08,38.62,44.56V401.03z"/>
			<polygon points="2463.86,540.62 2463.86,6.31 2360.39,6.31 2360.39,273.48 2256.9,6.3 2153.45,6.3 2360.36,540.63      2360.39,540.63 2360.39,540.66 2463.86,540.66 2463.86,540.63 2463.87,540.63    "/>
		</g>
		<polyline points="2153.42,6.3 2153.42,540.66 2256.9,540.66 2256.9,6.3   "/>
	</g>
</g>
</svg>