<?xml version="1.0" standalone="no"?>
<!DOCTYPE svg PUBLIC "-//W3C//DTD SVG 1.1//EN" "http://www.w3.org/Graphics/SVG/1.1/DTD/svg11.dtd" >
<svg xmlns="http://www.w3.org/2000/svg" xmlns:xlink="http://www.w3.org/1999/xlink" version="1.1">
<metadata></metadata>
<defs>
<font id="harmonymedium" horiz-adv-x="1333" >
<font-face units-per-em="2048" ascent="1638" descent="-410" />
<missing-glyph horiz-adv-x="471" />
<glyph horiz-adv-x="0" />
<glyph horiz-adv-x="682" />
<glyph unicode=" "  horiz-adv-x="471" />
<glyph unicode="&#x09;" horiz-adv-x="471" />
<glyph unicode="&#xa0;" horiz-adv-x="471" />
<glyph unicode="!" horiz-adv-x="380" d="M61 109q0 54 37.5 91.5t91.5 37.5t91.5 -37.5t37.5 -91.5t-37.5 -91.5t-91.5 -37.5t-91.5 37.5t-37.5 91.5zM76 1307q-6 51 28.5 89t85.5 38q52 0 86.5 -38t28.5 -89l-94 -914h-41z" />
<glyph unicode="&#x22;" horiz-adv-x="468" d="M63 1368q-4 43 15.5 64.5t48.5 21.5q30 0 49.5 -22t13.5 -64q-35 -346 -63 -346q-7 0 -17 33t-22.5 114.5t-24.5 198.5zM276 1368q-4 42 16 64t50 22q29 0 48.5 -21.5t15.5 -64.5q-12 -117 -24.5 -198.5t-22.5 -114.5t-17 -33q-28 0 -66 346z" />
<glyph unicode="#" horiz-adv-x="1918" d="M61 358v37h437l182 649h-487v37h497l133 471h39l-133 -471h633l133 471h39l-133 -471h457v-37h-467l-183 -649h516v-37h-528l-131 -471h-39l131 471h-631l-133 -471h-39l133 471h-426zM537 395h630l185 649h-633z" />
<glyph unicode="$" horiz-adv-x="1200" d="M61 440h37q75 -207 202 -315.5t280 -108.5h2v613q-9 4 -28 12t-28 12q-16 6 -41.5 18t-31.5 15q-33 15 -105 57q-33 22 -53 37q-86 64 -126 141.5t-40 180.5q0 156 127.5 254t318.5 98h7v199h36v-199q76 -7 130 -20h174l133 -373h-37q-40 100 -76 153q-55 85 -125 134 q-12 9 -29 18q-73 45 -170 51v-538q155 -59 257.5 -116t160 -117.5t80.5 -120.5t23 -136q0 -94 -44.5 -173t-125.5 -134q-142 -96 -351 -102v-199h-36v199q-86 4 -144 14q-5 1 -16 3t-16 3h-189zM291 1184q0 -61 31 -112.5t104 -100.5q5 -3 15.5 -8.5t15.5 -8.5 q61 -35 125 -61v524q-161 0 -246 -108q-6 -12 -12 -21q-33 -50 -33 -104zM618 18q127 6 203 48q4 3 12.5 8t12.5 8q100 71 100 215q0 72 -30 122t-89 91q-37 24 -61 35q-44 23 -148 67v-594z" />
<glyph unicode="%" horiz-adv-x="1781" d="M61 1092q0 147 107 254.5t262 107.5t262 -107.5t107 -254.5t-107 -255t-262 -108t-262 108t-107 255zM219 1092q0 -41 4.5 -81.5t18.5 -88t36.5 -83t61.5 -59.5t90 -24q63 0 108 34.5t65.5 90.5t29 107t8.5 104q0 41 -4.5 81t-18.5 88t-36 83t-61.5 59t-90.5 24 q-63 0 -107.5 -34.5t-65.5 -90t-29.5 -106.5t-8.5 -104zM418 -20l907 1474h39l-907 -1474h-39zM983 344q0 147 107 255t262 108q154 0 261 -108t107 -255q0 -148 -106.5 -256t-261.5 -108t-262 108t-107 256zM1141 344q0 -53 8.5 -104t29 -107t65.5 -90.5t108 -34.5 q51 0 90 24t61.5 59.5t36.5 83t18.5 88t4.5 81.5q0 40 -4.5 80.5t-18.5 88t-36.5 83.5t-61.5 60t-90 24t-90.5 -24t-61.5 -60t-36 -84t-18.5 -88t-4.5 -80z" />
<glyph unicode="&#x26;" horiz-adv-x="1650" d="M62 280q-11 168 147 329q105 106 272 194q-84 163 -84 321q0 135 97.5 232.5t265.5 97.5q66 0 118 -17.5t81 -43.5t48 -60t25 -63t6 -56q0 -110 -79 -199.5t-263 -187.5q51 -90 135 -225q78 -119 156 -229q81 92 130 168t66 126.5t12.5 89t-24.5 60t-52.5 34.5t-62.5 17 t-63 4v39h348q0 -195 -321 -575q161 -209 326 -209q84 0 136 50.5t70 117.5h37q-22 -154 -105.5 -234.5t-221.5 -80.5q-110 0 -202 49t-183 155q-197 -188 -415 -203q-167 -12 -283 80q-109 86 -117 219zM251 465q-44 -125 22 -232q59 -98 177 -127q158 -40 329 68 q33 21 65 47q-5 7 -137 187q-58 84 -74 110q-33 53 -55 96q-48 88 -62 119q-210 -109 -265 -268zM579.5 1271.5q-13.5 -54.5 5 -152.5t77.5 -224q78 36 130.5 78.5t78.5 88.5t36.5 89.5t10.5 95.5q0 170 -160 170q-32 0 -65 -11t-66.5 -45.5t-47 -89z" />
<glyph unicode="'" horiz-adv-x="253" d="M63 1368q-4 43 15.5 64.5t48.5 21.5q30 0 49.5 -22t13.5 -64q-35 -346 -63 -346q-7 0 -17 33t-22.5 114.5t-24.5 198.5z" />
<glyph unicode="(" horiz-adv-x="606" d="M61 690q0 344 125.5 577t348.5 300l10 -33q-212 -63 -331.5 -287.5t-119.5 -556.5q0 -333 119.5 -557t331.5 -287l-10 -32q-223 68 -348.5 300t-125.5 576z" />
<glyph unicode=")" horiz-adv-x="604" d="M61 -154q211 63 330 287t119 557q0 332 -119.5 556.5t-329.5 287.5l9 33q147 -45 254 -164.5t163 -302t56 -410.5q0 -344 -125 -576.5t-348 -299.5z" />
<glyph unicode="*" horiz-adv-x="610" d="M66 1280q9 27 30.5 37.5t59.5 -6.5q72 -39 123 -70q-16 51 -31 137q-7 37 11.5 56.5t45.5 19.5t45.5 -19.5t11.5 -56.5q-16 -93 -30 -137q51 31 123 70q38 17 59.5 6.5t30.5 -37.5q9 -25 -4.5 -48.5t-51.5 -29.5q-92 -11 -139 -14q43 -34 105 -94q27 -29 24 -54.5 t-26 -40.5q-14 -10 -29.5 -12.5t-33 7t-28.5 32.5q-46 93 -57 131q-11 -38 -57 -131q-12 -23 -29 -32.5t-32 -7t-29 12.5q-23 15 -26.5 40t24.5 55q67 65 104 94q-47 3 -139 14q-38 6 -51 29.5t-4 48.5z" />
<glyph unicode="+" horiz-adv-x="835" d="M61 698v37h338v338h37v-338h338v-37h-338v-338h-37v338h-338z" />
<glyph unicode="," horiz-adv-x="380" d="M61 109q0 54 37.5 91.5t91.5 37.5t91.5 -37.5t37.5 -91.5q0 -209 -167 -340l-23 24q62 52 93.5 103t49.5 120q-31 -36 -82 -36q-53 0 -91 37.5t-38 91.5z" />
<glyph unicode="-" horiz-adv-x="808" d="M61 698v37h687v-37h-687z" />
<glyph unicode="." horiz-adv-x="378" d="M61 109q0 54 37 91.5t90 37.5q54 0 91.5 -37.5t37.5 -91.5t-37.5 -91.5t-91.5 -37.5q-53 0 -90 37.5t-37 91.5z" />
<glyph unicode="/" horiz-adv-x="761" d="M61 -113l601 1665h38l-600 -1665h-39z" />
<glyph unicode="0" horiz-adv-x="1179" d="M61 717q0 207 67 375t188.5 265t275.5 97q153 0 273.5 -97t186.5 -265t66 -375t-65.5 -374.5t-186.5 -265t-274 -97.5q-154 0 -275.5 97t-188.5 265t-67 375zM264 717q0 -46 3.5 -99.5t13.5 -123t25 -134t41 -128t59 -110t81 -75.5t105 -29q56 0 104 29t80.5 75.5 t58.5 110t41 128t25 134t13.5 123t3.5 99.5q0 55 -5.5 119.5t-18 147t-37 156.5t-58.5 137.5t-88 101.5t-119 38q-78 0 -139.5 -55t-95.5 -135t-56.5 -181.5t-29.5 -181t-7 -147.5z" />
<glyph unicode="1" horiz-adv-x="675" d="M61 0v37h172v1007q0 131 -1 144q-6 54 -39 58q-36 4 -132 -44v37q45 25 166 96.5t172 98.5h45v-1397h170v-37h-553z" />
<glyph unicode="2" horiz-adv-x="1073" d="M41 0v37q227 197 374 366t230.5 347.5t83.5 353.5q0 149 -57 231t-172 82q-144 0 -232 -85.5t-157 -270.5h-37l131 373h176q76 20 133 20q210 0 322 -97t112 -282q0 -80 -33.5 -165.5t-88.5 -164.5t-148.5 -176.5t-188 -183t-233.5 -203.5h266q170 0 232 12 q111 23 175 114q36 51 66 132h37l-145 -440h-846z" />
<glyph unicode="3" horiz-adv-x="1175" d="M41 440h35q74 -204 213 -314t295 -110q70 0 129.5 25t99.5 65.5t68 93.5t40.5 107.5t12.5 108.5q0 61 -17.5 118t-55.5 109t-98 82.5t-144.5 37t-194.5 -27.5v35q371 132 371 406q0 105 -46 173t-147 68q-146 0 -241.5 -87t-163.5 -269h-35l131 373h176q76 20 143 20 q177 0 279 -73.5t102 -202.5q0 -48 -17 -92t-42 -76.5t-66 -63.5t-76.5 -51.5t-87 -42t-84 -33t-79.5 -26.5q94 22 181 20t162.5 -33t131 -80t87.5 -120t32 -154q0 -135 -76.5 -238t-200.5 -155.5t-274 -52.5q-44 0 -201 20h-186z" />
<glyph unicode="4" horiz-adv-x="1091" d="M0 387v35q15 18 40.5 51t102.5 140t151 219t171 277t176 325h160v-1012h250v-35h-250v-350h172v-37h-553v37h172v350h-592zM51 422h541v838q-63 -122 -142 -253.5t-146.5 -231.5t-126 -182.5t-92.5 -126.5z" />
<glyph unicode="5" horiz-adv-x="1107" d="M41 440h35q77 -214 184.5 -319t255.5 -105q70 0 129.5 27.5t99.5 72t68 101.5t40.5 114t12.5 111q0 125 -34 215.5t-90 137t-128 64.5t-147 5t-147.5 -49.5t-129.5 -91.5l-24 18l84 693h524q106 0 141.5 13t61.5 75h37l-74 -269h-676l-53 -467q52 43 117 71.5t134.5 41 t142 9t139 -22.5t126 -56.5t103 -89.5t69 -125.5t25.5 -160.5q0 -136 -75.5 -245t-201 -168.5t-274.5 -59.5q-55 0 -160 20h-161z" />
<glyph unicode="6" horiz-adv-x="1097" d="M61 584q0 185 32.5 336t85 248t121.5 163.5t139.5 94.5t142.5 28q79 0 133 -20h135l133 -375h-37q-68 183 -151.5 270.5t-200.5 87.5q-51 0 -93.5 -20.5t-73.5 -55.5t-56 -91t-42 -117t-30.5 -144.5t-21.5 -163t-15 -182.5q4 11 11.5 29t36 63.5t62.5 81t90.5 64 t119.5 28.5q95 0 177.5 -31.5t144 -89.5t97 -145t35.5 -192q0 -205 -134 -338t-335 -133q-76 0 -146 19t-136.5 64.5t-115.5 113.5t-78.5 172.5t-29.5 234.5zM276 451q0 -121 33.5 -217.5t100 -155.5t157.5 -62q87 0 148.5 61t90 157.5t28.5 216.5q0 191 -65 306t-187 115 q-114 0 -210 -118.5t-96 -302.5z" />
<glyph unicode="7" horiz-adv-x="972" d="M61 1061l123 373h768q-10 -12 -26.5 -34.5t-64.5 -98.5t-91 -159.5t-95 -214t-87.5 -265.5t-57.5 -310.5t-16 -351.5h-199q-1 141 30.5 295.5t79 283.5t113.5 263t122.5 227.5t117.5 183.5h-258q-30 0 -73 0.5t-64 1t-53 -0.5t-47.5 -4.5t-38.5 -9t-35.5 -15.5t-29.5 -24 t-29.5 -34.5t-26 -46t-27.5 -59.5h-35z" />
<glyph unicode="8" horiz-adv-x="1126" d="M61 332q0 65 24.5 120.5t60.5 91t83.5 64.5t84.5 44.5t73 28.5q7 2 10 3q-91 58 -149.5 114t-94.5 130.5t-36 161.5q0 82 32 147t81 104.5t112 66t120 36.5t111 10q72 0 142.5 -16.5t135 -50t104.5 -94.5t40 -140q0 -67 -26.5 -122.5t-73 -94.5t-100.5 -65.5t-119 -43.5 q54 -26 91.5 -46.5t87.5 -52.5t83.5 -66.5t64.5 -77.5t46.5 -96.5t15.5 -114.5q0 -74 -26 -135.5t-70 -103t-97.5 -73t-113.5 -48.5t-111.5 -25t-97.5 -8q-65 0 -129.5 10.5t-130.5 37t-115.5 65.5t-81 100.5t-31.5 138.5zM227 311q0 -124 93.5 -208.5t228.5 -84.5 q41 0 83.5 8.5t87.5 30t79.5 52.5t57 80t22.5 110q0 36 -11.5 68.5t-27.5 58t-46.5 51.5t-55.5 43t-69.5 40t-72.5 35.5t-80 35.5t-78 35q-101 -51 -156 -148.5t-55 -206.5zM293 1180q0 -53 21.5 -99.5t49.5 -77t74 -60.5t75.5 -44t75 -33t52.5 -22q58 30 81 49 q116 92 116 270q0 73 -23.5 125.5t-64 79t-83.5 38t-94 11.5q-34 0 -68 -5.5t-73.5 -21.5t-69 -41t-49.5 -69t-20 -100z" />
<glyph unicode="9" horiz-adv-x="1097" d="M61 983q0 205 134 338t335 133q76 0 146 -19t136.5 -64t115.5 -112.5t78.5 -172t29.5 -234.5q0 -185 -32.5 -336.5t-84.5 -249t-121 -164t-139.5 -94.5t-142.5 -28t-133 20h-135l-133 375h37q68 -182 151 -270.5t199 -88.5q52 0 94.5 20.5t74 56t56.5 91.5t41.5 117.5 t30 145.5t21 164t14.5 182q-2 -6 -6 -15.5t-18 -37.5t-30.5 -53.5t-44 -56.5t-58 -53t-73 -37.5t-88.5 -15.5q-127 0 -229.5 54t-164 159.5t-61.5 245.5zM264 983q0 -191 65 -306.5t187 -115.5q53 0 107 30.5t98.5 83.5t72 134t27.5 174q0 187 -77.5 309t-213.5 125 q-87 0 -148.5 -60t-89.5 -156.5t-28 -217.5z" />
<glyph unicode=":" horiz-adv-x="380" d="M61 109q0 54 37.5 91.5t91.5 37.5t91.5 -37.5t37.5 -91.5t-37.5 -91.5t-91.5 -37.5t-91.5 37.5t-37.5 91.5zM61 840q0 53 37.5 90t91.5 37t91.5 -37t37.5 -90q0 -54 -37.5 -91.5t-91.5 -37.5t-91.5 37.5t-37.5 91.5z" />
<glyph unicode=";" horiz-adv-x="378" d="M61 109q0 54 37.5 91.5t91.5 37.5q53 0 90 -37.5t37 -91.5q0 -210 -165 -340l-23 24q63 52 94 103.5t47 119.5q-29 -36 -80 -36q-53 0 -91 37.5t-38 91.5zM61 840q0 53 37.5 90t91.5 37q52 0 89.5 -37.5t37.5 -89.5q0 -54 -37 -91.5t-90 -37.5q-54 0 -91.5 37.5 t-37.5 91.5z" />
<glyph unicode="&#x3c;" horiz-adv-x="722" d="M61 698v37l601 223v-36l-551 -205l551 -207v-37z" />
<glyph unicode="=" horiz-adv-x="874" d="M61 537v36h752v-36h-752zM61 860v37h752v-37h-752z" />
<glyph unicode="&#x3e;" horiz-adv-x="722" d="M61 473v37l551 207l-551 205v36l601 -223v-37z" />
<glyph unicode="?" horiz-adv-x="999" d="M61 1061l134 373h147q86 20 133 20q109 0 191 -16.5t144.5 -53t95 -101t32.5 -155.5q0 -64 -24.5 -117t-64 -91t-87 -74t-95 -77.5t-87 -90t-64 -122t-24.5 -163.5h-41q0 91 21 165t52 119.5t68 95.5t68 93.5t52 112t21 151.5q0 138 -74.5 212.5t-195.5 74.5 q-74 0 -128 -21t-96.5 -69.5t-73.5 -109t-67 -156.5h-37zM336 109q0 54 37.5 91.5t91.5 37.5t91.5 -37.5t37.5 -91.5t-37.5 -91.5t-91.5 -37.5t-91.5 37.5t-37.5 91.5z" />
<glyph unicode="@" horiz-adv-x="1736" d="M61 340q0 331 263 573q265 238 647 238q298 0 499 -168q205 -166 205 -430q0 -217 -135 -395q-65 -86 -154.5 -132t-177.5 -46q-24 0 -47.5 3.5t-56 18t-54.5 38t-34.5 69.5t-5.5 108q-14 -38 -34 -74t-52 -75.5t-79.5 -63.5t-103.5 -24q-116 0 -198 79q-80 77 -80 215 q0 181 137 330q143 152 307 152q160 0 203 -172l45 133h152q-166 -511 -166 -574q0 -35 11.5 -59t31 -34t35 -13.5t32.5 -3.5q59 0 129.5 39.5t124.5 111.5q117 150 117 365q0 133 -51 240.5t-150 177.5q-203 141 -440 141q-161 0 -323.5 -57t-280.5 -162 q-124 -110 -191 -250t-67 -297q0 -269 235 -477q101 -90 247 -137t300 -47q162 0 317 54.5t246 119.5l27 -37q-104 -72 -259.5 -128.5t-334.5 -56.5q-354 0 -596 205q-240 206 -240 502zM627 199q0 -76 41 -123q39 -45 106 -45q136 0 219 215q82 221 82 315q0 19 -6.5 40.5 t-20 44.5t-41.5 37.5t-65 14.5q-115 0 -217 -170q-98 -171 -98 -329z" />
<glyph unicode="A" d="M20 0v35h146l459 1419h69l473 -1419h146v-35h-553v35h172l-152 454h-428l-147 -454h172v-35h-357zM362 524h406l-207 615z" />
<glyph unicode="B" horiz-adv-x="1269" d="M61 0v35h172v1362h-172v37h498q125 0 220.5 -18t168 -57t110.5 -106.5t38 -162.5q0 -143 -84 -218.5t-244 -99.5q226 -19 343.5 -110.5t117.5 -266.5q0 -201 -152 -298t-438 -97h-578zM457 35h196q67 0 120.5 13.5t88.5 34.5t60.5 53.5t39 62t21 69t9 66.5t1.5 61 q0 35 -1.5 60.5t-8.5 65t-20 68t-38 61t-59.5 53t-88 34t-120.5 13.5h-200v-715zM457 784h141q274 0 274 306q0 307 -272 307h-143v-613z" />
<glyph unicode="C" horiz-adv-x="1294" d="M41 717q0 117 31 226.5t91.5 202t144 161.5t194 108t235.5 39q84 0 172 -20h176l132 -375h-35q-66 176 -180.5 267t-264.5 91q-78 0 -143.5 -26.5t-112.5 -70.5t-83.5 -104t-59.5 -123.5t-37.5 -133t-20.5 -128.5t-6 -114t6 -114t20.5 -129t37.5 -134t59.5 -124 t83.5 -104.5t112.5 -71t143.5 -26.5q153 0 280 108.5t200 315.5l36 2l-155 -440h-189q-76 -20 -172 -20q-125 0 -235.5 39t-194 108t-144 161.5t-91.5 202t-31 226.5z" />
<glyph unicode="D" horiz-adv-x="1482" d="M61 0v35h172v1362h-172v37h560q183 0 327.5 -42.5t235.5 -112t150.5 -164.5t83.5 -193t24 -205t-24 -204.5t-83.5 -192.5t-150.5 -164.5t-235.5 -112.5t-327.5 -43h-560zM457 35h164q110 0 199.5 27t149 70t104.5 105t69.5 122t39.5 130.5t19 122t4 105.5q0 53 -4 104.5 t-19 122t-39.5 130.5t-69.5 121.5t-104.5 104.5t-149 70t-199.5 27h-164v-1362z" />
<glyph unicode="E" horiz-adv-x="1224" d="M61 0v35h172v1362h-172v37h936l133 -375h-36q-71 190 -183.5 264t-298.5 74h-155v-637h125q53 0 90.5 5.5t63 20.5t41 32t25 49.5t13 63.5t6.5 83h37v-543h-37q-2 34 -4 56.5t-6 47.5t-9.5 41.5t-14.5 33.5t-21.5 27.5t-29.5 20t-39.5 14.5t-51 8t-63.5 3h-125v-688h223 q172 0 281 100t186 305h37l-131 -440h-992z" />
<glyph unicode="F" horiz-adv-x="1150" d="M61 0v35h172v1362h-172v37h936l133 -375h-36q-71 190 -183.5 264t-298.5 74h-157v-664h127q53 0 90.5 5.5t63 20.5t41 32t25 49.5t13 63.5t6.5 83h37v-543h-37q-2 34 -4 56.5t-6 47.5t-9.5 41.5t-14.5 33.5t-21.5 27.5t-29.5 20t-39.5 14.5t-51 8t-63.5 3h-127v-661h172 v-35h-566z" />
<glyph unicode="G" horiz-adv-x="1531" d="M41 717q0 117 31 226.5t91.5 202t144 161.5t194 108t235.5 39q82 0 174 -20h174l134 -375h-37q-66 176 -180.5 267t-264.5 91q-78 0 -143.5 -26.5t-112 -70.5t-83 -104t-59 -123.5t-37.5 -133t-20.5 -128.5t-5.5 -114t5.5 -114t20.5 -129t37.5 -134t59 -124t83 -104.5 t112 -71t143.5 -26.5q71 0 129.5 12.5t96.5 31.5t66.5 46.5t44 53t24.5 54.5t11.5 48.5t2.5 38.5v352h-315v37h694v-37h-172v-651h-33q-1 3 -4 16.5t-5 19t-6.5 17t-10 17.5t-13 13t-18.5 10t-25 3q-39 0 -89.5 -18t-96 -40t-121.5 -40t-160 -18q-125 0 -235.5 39t-194 108 t-144 161.5t-91.5 202t-31 226.5z" />
<glyph unicode="H" horiz-adv-x="1544" d="M61 0v35h172v1362h-172v37h566v-37h-170v-643h630v643h-172v37h568v-37h-172v-1362h172v-35h-568v35h172v682h-630v-682h170v-35h-566z" />
<glyph unicode="I" horiz-adv-x="690" d="M61 0v35h172v1362h-172v37h568v-37h-172v-1362h172v-35h-568z" />
<glyph unicode="J" horiz-adv-x="1071" d="M41 90l123 350l33 -18q-24 -90 -24 -161q0 -78 29 -135q55 -110 171 -110q42 0 75 7.5t57.5 24.5t42.5 37.5t30 54t19 66t11 82t5 93.5t1 108v908h-172v37h568v-37h-172v-946q0 -250 -115.5 -360.5t-335.5 -110.5q-76 0 -162.5 27.5t-134.5 54.5z" />
<glyph unicode="K" horiz-adv-x="1515" d="M61 0v35h172v1362h-172v37h568v-37h-172v-824l690 824h-176v37h389v-37h-172l-389 -465l536 -897h160v-35h-602v35h184l-428 717l-192 -230v-487h172v-35h-568z" />
<glyph unicode="L" horiz-adv-x="1224" d="M61 0v35h172v1362h-172v37h568v-37h-172v-1362h223q172 0 282 100t187 305h35l-131 -440h-992z" />
<glyph unicode="M" horiz-adv-x="1728" d="M61 0v35h172v1362h-172v37h433l383 -1141l368 1141h422v-37h-172v-1362h172v-35h-565v35h172v1360l-459 -1415h-72l-473 1417v-1362h172v-35h-381z" />
<glyph unicode="N" horiz-adv-x="1406" d="M61 0v37h172v1360h-172v37h373l703 -1092v1055h-172v37h381v-37h-172v-1417h-50l-856 1312l2 -1255h170v-37h-379z" />
<glyph unicode="O" horiz-adv-x="1478" d="M41 717q0 117 31.5 226.5t92 202t144 161.5t194.5 108t236 39t236 -39t194.5 -108t144.5 -161.5t92.5 -202t31.5 -226.5t-31.5 -226.5t-92.5 -202t-144.5 -161.5t-194.5 -108t-236 -39t-236 39t-194.5 108t-144 161.5t-92 202t-31.5 226.5zM276 717q0 -65 8.5 -135 t27.5 -152t54.5 -153.5t84.5 -131t123.5 -94.5t164.5 -35q78 0 143.5 26.5t112.5 70.5t83.5 104t59.5 124t37.5 133.5t20.5 128.5t6 114t-6 114t-20.5 128.5t-37.5 133t-59.5 123.5t-83.5 104t-112.5 70.5t-143.5 26.5t-144 -26.5t-112.5 -70.5t-83.5 -104t-59.5 -123.5 t-37.5 -133t-20.5 -128.5t-5.5 -114z" />
<glyph unicode="P" horiz-adv-x="1208" d="M61 0v37h172v1360h-172v37h539q135 0 237 -21t177.5 -66.5t114 -122.5t38.5 -184q0 -105 -43 -183t-121.5 -123.5t-178.5 -67t-224 -21.5h-143v-608h172v-37h-568zM457 682h172q77 0 135.5 27.5t89.5 66t50.5 91t24.5 92.5t5 81q0 33 -1 55.5t-7 63t-17 69t-33.5 63 t-54 56t-81 36t-111.5 14.5h-172v-715z" />
<glyph unicode="Q" horiz-adv-x="1476" d="M41 717q0 117 31 226.5t92 202t144 161.5t194.5 108t236.5 39q155 0 287.5 -60t221.5 -161.5t138.5 -235t49.5 -280.5q0 -187 -76.5 -348t-224 -266.5t-338.5 -120.5l-146 -101q103 29 199 29q99 0 181 -20.5t136.5 -50t102 -58.5t100 -49.5t107.5 -20.5q46 0 89 12.5 t72 30.5t51.5 37t33.5 32.5t10 16.5h16q0 -7 -11 -35.5t-38.5 -74t-66.5 -86.5t-104.5 -71t-142.5 -30q-61 0 -131 30t-134 72.5t-128 84.5t-135 72t-133 30q-116 0 -190 -45q-6 -4 -17.5 -12t-19.5 -13t-18.5 -12t-18 -10t-16 -5.5t-15.5 -1t-12 6.5q-9 12 -6.5 27t36 36.5 t91.5 40.5l194 136q-155 1 -286.5 62t-219.5 162t-137 234t-49 279zM276 717q0 -65 8.5 -135t27.5 -152t54.5 -153.5t84.5 -131t123.5 -94.5t164.5 -35q78 0 143.5 26.5t112 70.5t83 104t59 123.5t37.5 133.5t20.5 129t5.5 114t-5.5 114t-20.5 128.5t-37.5 133t-59 123.5 t-83 104t-112 70.5t-143.5 26.5t-144 -26.5t-112.5 -70.5t-83.5 -104t-59.5 -123.5t-37.5 -133t-20.5 -128.5t-5.5 -114z" />
<glyph unicode="R" horiz-adv-x="1464" d="M61 0v37h172v1360h-172v37h557q115 0 209.5 -21t168 -63.5t114.5 -114t41 -166.5q0 -142 -89 -228t-243 -118q91 -16 156 -42.5t113.5 -71.5t72 -113t23.5 -162q0 -47 2 -80.5t5.5 -73t12 -66.5t22.5 -51t35.5 -35.5t49.5 -11.5q16 0 30.5 2t26.5 6t21 8t17 9.5t12.5 8.5 t9.5 8t6 5l10 -12q-9 -11 -24 -24t-57 -30t-91 -17q-170 0 -247 99t-77 306q0 44 -1.5 72.5t-9 65.5t-21 60.5t-38.5 49t-60 40t-88 23.5t-120 9h-153v-668h170v-37h-566zM457 741h164q72 0 126.5 19.5t86.5 50t51.5 75t26 88t6.5 95.5t-6.5 95.5t-26 88t-51.5 75t-86.5 50 t-126.5 19.5h-164v-656z" />
<glyph unicode="S" horiz-adv-x="1159" d="M41 440h37q73 -208 199 -316t280 -108q367 0 367 281q0 30 -5.5 56t-14 47.5t-25 41.5t-32 35.5t-42 32.5t-47 28.5t-55.5 28t-60 27t-68 28.5t-71 31q-210 91 -304 194t-94 255q0 156 128 254t319 98q96 0 172 -20h176l131 -375h-35q-132 358 -432 358q-75 0 -134.5 -23 t-93 -59.5t-50.5 -75t-17 -75.5q0 -91 71 -162.5t249 -138.5q157 -60 261 -117.5t162.5 -118.5t81.5 -121.5t23 -136.5q0 -182 -152 -295.5t-395 -113.5q-98 0 -186 20h-188z" />
<glyph unicode="T" horiz-adv-x="1402" d="M20 1059l134 375h1097l131 -375h-34q-71 191 -184 264.5t-300 73.5h-51v-1360h172v-37h-567v37h172v1360h-51q-187 0 -299 -73.5t-183 -264.5h-37z" />
<glyph unicode="U" horiz-adv-x="1464" d="M61 1397v37h568v-37h-172v-932q0 -235 72.5 -342t246.5 -107q201 0 309.5 117.5t108.5 337.5v926h-172v37h381v-37h-172v-940q0 -235 -128.5 -356t-346.5 -121q-523 0 -523 473v944h-172z" />
<glyph unicode="V" d="M20 1397v37h553v-37h-172l371 -1104l356 1104h-172v37h357v-37h-146l-456 -1417h-72l-473 1417h-146z" />
<glyph unicode="W" horiz-adv-x="2119" d="M20 1397v37h558v-37h-172l397 -1102l246 803l-109 299h-145v37h557v-37h-172l399 -1102l336 1102h-172v37h356v-37h-145l-432 -1417h-70l-383 1058l-321 -1058h-70l-512 1417h-146z" />
<glyph unicode="X" horiz-adv-x="1474" d="M41 1397v37h602v-37h-184l313 -529l326 529h-185v37h383v-37h-157l-348 -561l485 -799h158v-37h-603v37h185l-381 639l-391 -639h186v-37h-385v37h158l413 672l-417 688h-158z" />
<glyph unicode="Y" horiz-adv-x="1415" d="M20 1397v37h603v-37h-185l391 -654l367 654h-186v37h385v-37h-158l-387 -686v-674h172v-37h-567v37h172v616l-447 744h-160z" />
<glyph unicode="Z" horiz-adv-x="1204" d="M41 0l762 1397h-228q-187 0 -299.5 -73.5t-183.5 -264.5h-35l131 375h893l-762 -1397h340q173 0 283 99.5t186 303.5h35l-131 -440h-991z" />
<glyph unicode="[" horiz-adv-x="524" d="M61 -115v1665h402v-37h-365v-1591h365v-37h-402z" />
<glyph unicode="\" horiz-adv-x="761" d="M61 1552h39l600 -1665h-38z" />
<glyph unicode="]" horiz-adv-x="524" d="M61 -78h365v1591h-365v37h402v-1665h-402v37z" />
<glyph unicode="^" horiz-adv-x="606" d="M61 1192l242 242l242 -242l-27 -27l-215 215l-215 -215z" />
<glyph unicode="_" horiz-adv-x="808" d="M61 -41h687v-37h-687v37z" />
<glyph unicode="`" horiz-adv-x="391" d="M61 1470l162 3l107 -318h-31z" />
<glyph unicode="a" horiz-adv-x="1128" d="M41 324q0 89 36 158t96 108.5t130 59.5t146 20q197 0 284 -154v10q0 54 -1.5 91.5t-6.5 83t-15 76t-27.5 62t-42 50t-61 30t-83.5 11.5q-212 0 -295 -230h-37l88 246h129q71 21 127 21q111 0 189.5 -19t136.5 -63t84 -120q25 -71 24 -172v-15v-541h145v-37h-354v133 q-87 -153 -284 -153q-76 0 -146 20t-130 59.5t-96 108t-36 156.5zM238 324q0 -81 22.5 -148t77 -113.5t133.5 -46.5q69 0 122.5 26.5t82 66.5t43 79t14.5 72v129q0 33 -14.5 72t-43 79t-82 66.5t-122.5 26.5q-79 0 -133.5 -46.5t-77 -113.5t-22.5 -149z" />
<glyph unicode="b" horiz-adv-x="1269" d="M61 0v37h146v1360h-146v37h355v-664q40 85 118 141t193 56q104 0 198 -40.5t160 -108t105 -158t39 -187.5q0 -130 -65 -243t-181.5 -181.5t-255.5 -68.5q-115 0 -193 56t-118 140v-176h-355zM416 322q0 -37 11 -77.5t36 -81.5t60.5 -73.5t88.5 -53t115 -20.5 q70 0 123.5 33t83.5 81.5t49 113.5t25 119.5t6 109.5q0 45 -4.5 90.5t-15.5 99.5t-32.5 99.5t-51.5 84.5t-77 61t-106 22q-77 0 -139.5 -30.5t-98 -77.5t-54.5 -98t-19 -97v-305z" />
<glyph unicode="c" horiz-adv-x="937" d="M41 473q0 97 38.5 187.5t104 158t159.5 108t198 40.5q67 0 116 -21h127l88 -246h-34q-86 230 -297 230q-70 0 -123 -32.5t-83 -81t-48.5 -113.5t-24.5 -119.5t-6 -110.5q0 -45 4.5 -90t15 -99t32 -100t51.5 -85t77.5 -61t106.5 -22q103 0 186.5 67.5t132.5 203.5h35 l-102 -287h-138q-58 -20 -114 -20q-140 0 -256 68.5t-181 181.5t-65 243z" />
<glyph unicode="d" horiz-adv-x="1269" d="M41 473q0 97 39 187.5t105 158t160 108t198 40.5q114 0 191.5 -56t119.5 -141v627h-145v37h354v-1397h145v-37h-354v176q-42 -84 -120 -140t-191 -56q-139 0 -255.5 68.5t-181.5 181.5t-65 243zM256 473q0 -55 6 -109.5t25 -119.5t49 -113.5t83.5 -81.5t123.5 -33 q62 0 115 20.5t88.5 53t60.5 73.5t36 81.5t11 77.5v305q0 46 -19 97t-54.5 98t-98 77.5t-139.5 30.5q-59 0 -106 -22t-77 -61t-51.5 -84.5t-32.5 -99.5t-15.5 -99.5t-4.5 -90.5z" />
<glyph unicode="e" horiz-adv-x="1042" d="M41 473q0 97 39 187.5t105 158t160 108t198 40.5q132 0 237.5 -62.5t163 -166t57.5 -226.5h-745v-39q0 -55 6 -109.5t25 -119.5t49 -113.5t83.5 -81.5t123.5 -33q72 0 135.5 18.5t105 44.5t74 58.5t48 55.5t22.5 40h37q-9 -22 -27 -49t-55 -64.5t-82 -67.5t-113.5 -51 t-144.5 -21q-139 0 -255.5 68.5t-181.5 181.5t-65 243zM258 549h528q-4 55 -12 103.5t-26.5 101t-44 90t-67 62t-93.5 24.5q-61 0 -109.5 -24.5t-78.5 -62t-51.5 -90t-31 -101.5t-14.5 -103z" />
<glyph unicode="f" horiz-adv-x="776" d="M61 0v37h146v872h-146v37h146v37q0 49 2.5 89t11.5 90t23.5 89.5t42 79t64 65.5t91.5 42t123 16q59 0 127.5 -19.5t107.5 -38.5l38 -20l-82 -231l-37 14q11 52 11 92q0 15 -2 29q-5 49 -31.5 79.5t-59.5 44t-72 13.5q-148 -4 -164 -202q-1 -19 -1 -45q0 -80 14 -224h305 v-37h-303v-872h145v-37h-500z" />
<glyph unicode="g" horiz-adv-x="1077" d="M61 520q0 121 61.5 224t167.5 163t232 60q123 0 230 -58q28 86 107.5 141.5t176.5 55.5v-139q-50 0 -75 -1t-68.5 -7t-71.5 -22.5t-43 -43.5q95 -61 151 -159.5t56 -213.5q0 -185 -135 -315.5t-328 -130.5q-125 0 -231 59q-66 -9 -102.5 -33.5t-36.5 -56.5q0 -20 9 -33.5 t28.5 -21.5t40 -12t55.5 -5t62 -0.5t71.5 1.5t73.5 1h41h32q25 0 50 1h17q34 0 68 -5q43 -6 83 -14.5t75 -29t61 -48.5t41 -72.5t15 -101.5q0 -64 -27.5 -130t-54.5 -100l-27 -34l-231 80l18 32q61 -15 111 -15t89 15q77 31 77 101q0 25 -8.5 45t-27 33.5t-38 23.5t-51 16 t-57 9t-64.5 4t-64 1t-66.5 -0.5t-61.5 -0.5q-140 0 -182 4q-234 25 -234 197q0 65 51 107.5t127 64.5q-90 63 -141.5 158.5t-51.5 205.5zM270 520q0 -36 3.5 -74t12.5 -87t28 -91t45 -78.5t68.5 -57.5t94.5 -21q63 0 111 31t74 76t42.5 104.5t21.5 106t5 91.5q0 36 -3.5 74 t-13 87t-28 91t-45 79t-69 58t-95.5 21q-52 0 -94.5 -21t-68.5 -58t-45 -79t-28 -91t-12.5 -87t-3.5 -74z" />
<glyph unicode="h" horiz-adv-x="1255" d="M61 0v37h146v1360h-146v37h355v-701q83 234 325 234q50 0 95 -10t88.5 -36t75 -65.5t50.5 -103.5t19 -146v-569h145v-37h-499v37h145v625q0 43 -2 73t-11 70t-25 64.5t-47 42.5t-75 18q-61 0 -111.5 -28.5t-81 -71t-52 -96t-30 -100t-9.5 -85.5v-512h145v-37h-500z" />
<glyph unicode="i" horiz-adv-x="604" d="M61 0v37h146v872h-146v37h357v-909h145v-37h-502zM190 1225q0 52 35 87.5t86 35.5q53 0 88 -35t35 -88q0 -51 -35.5 -86t-87.5 -35q-51 0 -86 35t-35 86z" />
<glyph unicode="j" horiz-adv-x="589" d="M-123 -420l90 227l33 -20q-15 -60 -15 -105q0 -55 21 -90q40 -63 121 -63q39 1 68.5 15t48.5 33.5t32 53.5t19 63t9 76q2 38 2 66v10q-1 31 -2 82t-1 76v905h-145v37h354v-981q0 -473 -371 -473q-71 0 -137 22t-96 44zM283 1225q0 52 36 87.5t87 35.5t86.5 -35.5 t35.5 -87.5q0 -51 -35.5 -86t-86.5 -35t-87 35t-36 86z" />
<glyph unicode="k" horiz-adv-x="1239" d="M61 0v37h146v1360h-146v37h355v-924h51l453 399h-132v37h304v-37h-119l-365 -321l471 -551h119v-37h-477v37h119l-373 436h-51v-436h145v-37h-500z" />
<glyph unicode="l" horiz-adv-x="602" d="M61 0v37h146v1360h-146v37h355v-1397h145v-37h-500z" />
<glyph unicode="m" horiz-adv-x="1884" d="M61 0v37h146v872h-146v37h355v-203q78 224 311 224q55 0 103.5 -12.5t93.5 -40t77.5 -79t45.5 -122.5q70 254 321 254q50 0 95 -10t88.5 -36t75 -65.5t50.5 -103.5t19 -146v-569h147v-37h-502v37h146v625q0 30 -1 51.5t-4.5 51.5t-9.5 51t-18 44t-28 37.5t-41 23.5t-56 9 q-52 0 -95.5 -20t-72 -53.5t-49.5 -73.5t-32.5 -84.5t-17 -81.5t-5.5 -70v-510h131v-37h-473v37h131v625q0 30 -1 51.5t-4.5 51.5t-9.5 51t-18 44t-28 37.5t-41 23.5t-56 9q-61 0 -110 -28.5t-78 -70.5t-49 -96t-27 -99.5t-8 -86.5v-512h145v-37h-500z" />
<glyph unicode="n" horiz-adv-x="1257" d="M61 0v37h146v872h-146v37h357v-213q79 234 323 234q50 0 95 -10t89 -36t75.5 -65.5t51 -103.5t19.5 -146v-569h146v-37h-502v37h145v625q0 30 -1 51.5t-4.5 51.5t-9.5 51t-18 44t-28 37.5t-41 23.5t-56 9q-62 0 -112.5 -28.5t-81.5 -71t-52 -96t-29.5 -100t-8.5 -85.5 v-512h145v-37h-502z" />
<glyph unicode="o" horiz-adv-x="1085" d="M41 473q0 97 39 187.5t105 158t160 108t198 40.5q139 0 255 -68.5t181 -182t65 -243.5t-65 -243t-181 -181.5t-255 -68.5t-255.5 68.5t-181.5 181.5t-65 243zM256 473q0 -55 6 -109.5t25 -119.5t49 -113.5t83.5 -81.5t123.5 -33t123 33t83 81.5t49 113.5t25 119.5 t6 109.5q0 56 -6 110.5t-25 119.5t-49 113.5t-83 81t-123 32.5q-59 0 -106 -22t-77 -61t-51.5 -84.5t-32.5 -99.5t-15.5 -99.5t-4.5 -90.5z" />
<glyph unicode="p" horiz-adv-x="1269" d="M61 -451h146v1362h-146v35h355v-176q42 85 119.5 141t191.5 56q104 0 198 -40.5t160 -108t105 -158t39 -187.5q0 -130 -65 -243t-181.5 -181.5t-255.5 -68.5q-113 0 -191 56t-120 140v-627h145v-36h-500v36zM416 322q0 -37 11 -77.5t36 -81.5t60.5 -73.5t88.5 -53 t115 -20.5q70 0 123.5 33t83.5 81.5t49 113.5t25 119.5t6 109.5q0 45 -4.5 90.5t-15.5 99.5t-32.5 99.5t-51.5 84.5t-77 61t-106 22q-62 0 -115 -20t-88.5 -52t-60.5 -73t-36 -81t-11 -77v-305z" />
<glyph unicode="q" horiz-adv-x="1271" d="M41 473q0 97 39 187.5t105 158t160 108t198 40.5q115 0 193 -56t118 -141v176h356v-35h-145v-1362h145v-36h-501v36h145v627q-40 -84 -118 -140t-193 -56q-139 0 -255.5 68.5t-181.5 181.5t-65 243zM256 473q0 -55 6 -109.5t25 -119.5t49 -113.5t83.5 -81.5t123.5 -33 q62 0 115 20.5t88.5 53t60.5 73.5t36 81.5t11 77.5v305q0 37 -11 77t-36 81t-60.5 73t-88.5 52t-115 20q-59 0 -106 -22t-77 -61t-51.5 -84.5t-32.5 -99.5t-15.5 -99.5t-4.5 -90.5z" />
<glyph unicode="r" horiz-adv-x="962" d="M61 0v37h146v874h-146v35h332v-301q16 91 47.5 160t92.5 115.5t143 46.5q46 0 102 -21h90l74 -246h-37q-47 127 -97.5 179.5t-145.5 52.5q-64 0 -114 -45.5t-77 -115t-41 -140.5t-14 -135v-459h145v-37h-500z" />
<glyph unicode="s" horiz-adv-x="813" d="M41 287h35q49 -136 133 -203.5t188 -67.5q106 0 162.5 51t56.5 126q0 66 -60 115t-194 110q-157 69 -211.5 135t-54.5 164q0 109 86 179.5t213 70.5q56 0 117 -21h129l86 -246h-35q-87 232 -289 232q-49 0 -85.5 -16.5t-54 -41.5t-25 -47t-7.5 -41q0 -59 41.5 -97.5 t147.5 -78.5q201 -75 276.5 -159t75.5 -197q0 -120 -102 -197t-264 -77q-39 0 -132 20h-135z" />
<glyph unicode="t" horiz-adv-x="757" d="M20 911v35h146v252h209v-252h297v-35h-297v-522q0 -19 -0.5 -55t-0.5 -58t0.5 -55.5t4 -54.5t8.5 -47.5t14.5 -42.5t22.5 -31t31.5 -22t42.5 -7q47 0 84.5 30t58.5 76.5t32 87.5t15 77h29q-47 -307 -254 -307q-130 0 -213.5 85.5t-83.5 272.5v573h-146z" />
<glyph unicode="u" horiz-adv-x="1214" d="M20 911v35h355v-661q0 -43 1.5 -72.5t10.5 -70t25 -65.5t46.5 -43t73.5 -18q76 0 135 42t90 105.5t46 123.5t16 112v512h-145v35h354v-909h146v-37h-355v215q-83 -235 -325 -235q-64 0 -119 17t-104.5 56t-78 112.5t-28.5 174.5v571h-144z" />
<glyph unicode="v" horiz-adv-x="1034" d="M41 911v35h475v-35h-133l240 -665l233 665h-133v35h291v-35h-119l-326 -931h-71l-338 931h-119z" />
<glyph unicode="w" horiz-adv-x="1511" d="M41 911v35h465v-35h-131l233 -665l144 469l-72 196h-92v35h426v-35h-119l233 -665l203 665h-131v35h291v-35h-121l-283 -931h-69l-246 675l-205 -675h-69l-338 931h-119z" />
<glyph unicode="x" horiz-adv-x="1060" d="M41 911v35h477v-35h-119l199 -333l205 333h-133v35h291v-35h-119l-226 -364l306 -510h118v-37h-477v37h119l-215 358l-219 -358h133v-37h-291v37h119l240 391l-289 483h-119z" />
<glyph unicode="y" horiz-adv-x="1079" d="M-20 -299l147 199l37 -43q-40 -57 -52 -112q-5 -25 -5 -46q0 -26 8 -47q14 -38 45 -61t71 -23q42 0 80 21.5t67 54t59.5 88t51.5 104.5t50 123q6 15 8 21h-15l-364 931h-119v35h475v-35h-131l254 -665l252 665h-131v35h291v-35h-119l-354 -931q-74 -193 -116 -267 q-93 -162 -225 -181q-19 -3 -40 -3q-81 0 -137 49t-88 123z" />
<glyph unicode="z" horiz-adv-x="854" d="M41 0l496 911h-134q-119 0 -188 -44.5t-113 -166.5h-34l82 246h634l-495 -909h198q109 0 177.5 60.5t113.5 189.5h35l-82 -287h-690z" />
<glyph unicode="{" horiz-adv-x="528" d="M61 674v33h62q51 0 78 41q44 64 35 198t-68 297q-30 76 -16 143t69 109q53 43 124 50t122 -25l-18 -27q-41 26 -102 19t-105 -42q-95 -75 -43 -217q61 -168 69 -311.5t-39 -212.5q-21 -28 -43 -39q26 -16 43 -39q47 -70 39 -213t-69 -311q-52 -142 43 -217 q44 -35 105 -42t102 19l18 -26q-43 -27 -100 -27q-85 0 -146 49q-55 44 -69 111t16 143q59 163 68 296.5t-35 197.5q-25 41 -78 41z" />
<glyph unicode="|" horiz-adv-x="159" d="M61 -113v1665h37v-1665h-37z" />
<glyph unicode="}" horiz-adv-x="528" d="M61 -139l19 26q41 -26 102.5 -19t104.5 42q95 75 43 217q-61 169 -69.5 311.5t38.5 212.5q17 23 43 39q-22 11 -43 39q-47 69 -38.5 212t69.5 312q52 142 -43 217q-43 35 -104.5 42t-102.5 -19l-19 27q51 32 122.5 25t125.5 -50q54 -42 67.5 -109t-14.5 -143 q-60 -163 -69 -297.5t35 -197.5q27 -41 78 -41h61v-33l-61 -2q-53 0 -78 -41q-44 -63 -35 -197t69 -297q28 -76 14.5 -143t-67.5 -111q-64 -49 -147 -49q-58 0 -101 27z" />
<glyph unicode="~" horiz-adv-x="755" d="M61 655q23 72 68.5 111t108.5 39q26 0 53 -11.5t42.5 -23t43.5 -33.5q28 -23 45.5 -35.5t45 -23t56.5 -10.5q57 0 89 33t44 75l37 -12q-20 -64 -65 -99.5t-105 -35.5q-34 0 -68.5 13t-54.5 27t-49 38q-24 19 -38.5 29t-35.5 19t-40 9q-99 0 -140 -121z" />
<glyph unicode="&#xa1;" horiz-adv-x="380" d="M61 840q0 53 37.5 90t91.5 37t91.5 -37t37.5 -90q0 -54 -37.5 -91.5t-91.5 -37.5t-91.5 37.5t-37.5 91.5zM76 -358l94 911h41l94 -911q6 -52 -28 -90.5t-87 -38.5q-52 0 -86 38t-28 91z" />
<glyph unicode="&#xa2;" horiz-adv-x="980" d="M61 717q0 128 63 239t175 180t246 74v172h37v-172q53 -3 96 -20h129l88 -246h-37q-81 220 -276 230v-912q98 5 176.5 71.5t124.5 196.5h37l-103 -286h-139q-47 -16 -96 -19v-174h-37v172q-134 5 -246 74.5t-175 181t-63 238.5zM276 717q0 -53 6 -106.5t24 -116.5t46 -111 t78 -82.5t115 -38.5v912q-65 -4 -115 -38.5t-78 -82.5t-46 -111.5t-24 -117t-6 -107.5z" />
<glyph unicode="&#xa3;" horiz-adv-x="1224" d="M61 762v37h191q-41 123 -53 223q-23 188 101.5 310t332.5 122q57 0 133 -20h176l131 -373h-37q-69 185 -157 270.5t-232 85.5q-252 0 -229 -274q3 -42 12 -91.5t17.5 -82t24.5 -89.5t22 -81h444v-37h-434q15 -62 21.5 -112.5t3.5 -111.5t-20.5 -115.5t-55.5 -117 t-97 -123.5h299q170 0 231 12q109 23 173 113q36 51 67 133h37l-145 -440h-899q66 60 112.5 118.5t73.5 105t36.5 104.5t11.5 94.5t-12.5 99t-24.5 93t-35 99.5q-11 32 -17 48h-203z" />
<glyph unicode="&#xa4;" horiz-adv-x="1146" d="M61 231l148 148q-64 69 -100.5 157t-36.5 181q0 191 137 338l-148 147l27 27l148 -148q142 129 337 129q196 0 338 -129l148 148l26 -27l-147 -147q137 -143 137 -338q0 -94 -36 -182t-101 -156l147 -148l-26 -24l-148 147q-144 -131 -338 -131q-193 0 -337 131 l-148 -147zM287 717q0 -126 30 -230q8 -24 15 -38q72 -189 241 -189q168 0 244 189q2 6 6 19t6 19q31 99 31 230q0 132 -31 231q-6 18 -12 39q-75 187 -244 187t-241 -187q-9 -21 -15 -39q-30 -104 -30 -231z" />
<glyph unicode="&#xa5;" horiz-adv-x="1495" d="M61 1397v37h603v-37h-187l391 -654l367 654h-184v37h383v-37h-158l-387 -686h289v-37h-289v-168h289v-37h-289v-432h172v-37h-567v37h172v432h-273v37h273v147l-13 21h-260v37h238l-412 686h-158z" />
<glyph unicode="&#xa6;" horiz-adv-x="159" d="M61 -113v641h37v-641h-37zM61 909v643h37v-643h-37z" />
<glyph unicode="&#xa7;" horiz-adv-x="856" d="M61 709q0 91 55 158.5t134 99.5q-133 94 -133 237q0 109 86.5 179.5t212.5 70.5q45 0 119 -20h127l86 -246h-35q-86 229 -287 229q-49 0 -85.5 -16t-54 -40.5t-25 -46.5t-7.5 -40q0 -53 30 -96.5t77.5 -73.5t105 -57.5t115.5 -57t105.5 -63.5t77.5 -85.5t30 -115.5 q0 -89 -55 -156.5t-134 -99.5q131 -95 131 -240q0 -108 -86 -178.5t-213 -70.5q-25 0 -43 2.5t-43 9.5t-30 8h-129l-87 248h35q86 -232 289 -232q49 0 85.5 16t54 41t25 47.5t7.5 41.5q0 53 -30 96t-77.5 73t-105.5 57.5t-115.5 56.5t-105 63.5t-77.5 85.5t-30 115zM178 791 q0 -55 42 -100.5t95 -71t136.5 -65t130.5 -69.5q41 19 68.5 59.5t27.5 100.5q0 44 -25 80t-70.5 64t-93 50.5t-110.5 52t-105 56.5q-41 -17 -68.5 -57.5t-27.5 -99.5z" />
<glyph unicode="&#xa8;" horiz-adv-x="741" d="M61 1313q0 47 34 82t81 35t81 -35t34 -82t-34 -81t-81 -34t-81 34t-34 81zM449 1313q0 48 33.5 82.5t80.5 34.5t82 -35t35 -82t-35 -81t-82 -34t-80.5 34t-33.5 81z" />
<glyph unicode="&#xa9;" horiz-adv-x="1374" d="M61 717q0 127 49.5 243t133.5 200t199.5 133.5t242.5 49.5t243.5 -49.5t200.5 -133.5t133.5 -200t49.5 -243q0 -169 -84 -313t-228.5 -228t-314.5 -84q-169 0 -313 84t-228 228t-84 313zM94 717q0 -160 79.5 -296.5t216 -216t296.5 -79.5q161 0 298 79.5t216.5 216 t79.5 296.5q0 161 -79.5 298t-216.5 216.5t-298 79.5q-160 0 -296.5 -79.5t-216 -216.5t-79.5 -298zM387 717q0 143 92 245.5t238 102.5q37 0 82 -10h82l61 -176h-16q-30 83 -84.5 126.5t-124.5 43.5q-51 0 -91 -24t-63.5 -60t-38.5 -82.5t-20.5 -87t-5.5 -78.5 q0 -37 5.5 -77t20.5 -86.5t38.5 -82.5t63.5 -60t91 -24q72 0 131.5 51t93.5 150h19l-74 -209h-88q-36 -8 -82 -8q-146 0 -238 101.5t-92 244.5z" />
<glyph unicode="&#xab;" horiz-adv-x="634" d="M61 717l242 239l25 -24l-215 -215l215 -215l-25 -27zM305 717l242 239l26 -24l-217 -215l217 -215l-26 -27z" />
<glyph unicode="&#xad;" horiz-adv-x="808" d="M61 698v37h687v-37h-687z" />
<glyph unicode="&#xae;" horiz-adv-x="1372" d="M61 717q0 127 49.5 243t133.5 200t199.5 133.5t242.5 49.5t242.5 -49.5t199.5 -133.5t133.5 -200t49.5 -243q0 -169 -84 -313t-228 -228t-313 -84t-313 84t-228 228t-84 313zM94 717q0 -160 79.5 -296.5t216 -216t296.5 -79.5t296.5 79.5t216 216t79.5 296.5 q0 161 -79.5 298t-216 216.5t-296.5 79.5t-296.5 -79.5t-216 -216.5t-79.5 -298zM399 385v16h82v641h-82v19h263q113 0 182 -42t69 -130q0 -68 -41.5 -109t-113.5 -55q87 -14 129.5 -55.5t42.5 -128.5q0 -34 1.5 -56.5t7 -46t18 -35.5t32.5 -12q35 0 58 23l6 -4 q-3 -5 -11 -12t-28 -15t-43 -8q-81 0 -117.5 46.5t-36.5 143.5q0 30 -2 48t-10.5 40t-25 34.5t-47.5 21t-75 8.5h-71v-316h82v-16h-269zM586 733h78q139 0 139 156q0 153 -139 153h-78v-309z" />
<glyph unicode="&#xaf;" horiz-adv-x="673" d="M61 1294v37h551v-37h-551z" />
<glyph unicode="&#xb0;" horiz-adv-x="434" d="M61 1313q0 64 45.5 109.5t110.5 45.5t110.5 -45.5t45.5 -109.5q0 -63 -46 -108.5t-110 -45.5t-110 45.5t-46 108.5zM94 1313q0 -50 36 -85.5t87 -35.5t87 35.5t36 85.5q0 51 -36 87t-87 36t-87 -36t-36 -87z" />
<glyph unicode="&#xb1;" horiz-adv-x="835" d="M61 348v35h713v-35h-713zM61 831v37h338v338h37v-338h338v-37h-338v-337h-37v337h-338z" />
<glyph unicode="&#xb4;" horiz-adv-x="393" d="M61 1155l109 318l162 -3l-240 -315h-31z" />
<glyph unicode="&#xb6;" horiz-adv-x="1155" d="M61 1034q0 129 92.5 221.5t221.5 92.5h719v-37h-318v-1417h-37v1417h-327v-1417h-37v827q-129 0 -221.5 91.5t-92.5 221.5z" />
<glyph unicode="&#xb8;" horiz-adv-x="565" d="M61 -381l15 29q67 -70 153 -70q65 0 104.5 34t47.5 89q7 47 -11 84.5t-51.5 55.5t-77 21t-87.5 -20l-2 6l57 152h41l-45 -115q54 21 109 12.5t98.5 -33t69 -68t20.5 -93.5q-6 -66 -76.5 -114t-181.5 -48q-67 0 -114 24t-69 54z" />
<glyph unicode="&#xbb;" horiz-adv-x="634" d="M61 502l215 215l-215 215l27 24l240 -239l-240 -242zM305 502l215 215l-215 215l27 24l241 -239l-241 -242z" />
<glyph unicode="&#xbf;" horiz-adv-x="997" d="M61 -180q0 64 24.5 117t64 91t86.5 74t94.5 77t87 89.5t64 121.5t24.5 163h41q0 -78 -15.5 -143t-40.5 -110t-55 -85.5t-60.5 -79.5t-55.5 -81.5t-40.5 -103t-15.5 -132.5q0 -140 74.5 -214.5t196.5 -74.5q73 0 127.5 21.5t97 70.5t73 109.5t66.5 156.5h37l-133 -374 h-148q-9 -2 -39.5 -8.5t-51.5 -9.5t-42 -3q-223 0 -342 75.5t-119 252.5zM403 840q0 53 37.5 90t91.5 37t92 -37t38 -90q0 -54 -38 -91.5t-92 -37.5t-91.5 37.5t-37.5 91.5z" />
<glyph unicode="&#xc0;" d="M20 0v35h146l459 1419h69l473 -1419h146v-35h-553v35h172l-152 454h-428l-147 -454h172v-35h-357zM362 524h406l-207 615zM414 1880l161 2l107 -317h-31z" />
<glyph unicode="&#xc1;" d="M20 0v35h146l459 1419h69l473 -1419h146v-35h-553v35h172l-152 454h-428l-147 -454h172v-35h-357zM362 524h406l-207 615zM639 1565l109 317l161 -2l-239 -315h-31z" />
<glyph unicode="&#xc2;" d="M20 0v35h146l459 1419h69l473 -1419h146v-35h-553v35h172l-152 454h-428l-147 -454h172v-35h-357zM362 524h406l-207 615zM385 1585l279 291l280 -291l-14 -14l-266 155l-265 -155z" />
<glyph unicode="&#xc3;" d="M20 0v35h146l459 1419h69l473 -1419h146v-35h-553v35h172l-152 454h-428l-147 -454h172v-35h-357zM354 1602q54 225 185 225q41 0 82.5 -16.5t69.5 -37t61.5 -37t60.5 -16.5q47 0 80.5 28.5t50.5 104.5l29 -8q-21 -121 -62.5 -178t-117.5 -57q-51 0 -107 27.5t-104 54.5 t-80 26q-43 0 -73 -28.5t-48 -96.5zM362 524h406l-207 615z" />
<glyph unicode="&#xc4;" d="M20 0v35h146l459 1419h69l473 -1419h146v-35h-553v35h172l-152 454h-428l-147 -454h172v-35h-357zM354 1722q0 47 34 82t81 35t81 -35t34 -82t-34 -80.5t-81 -33.5t-81 33.5t-34 80.5zM362 524h406l-207 615zM741 1722q0 47 34 82t81 35t82 -35t35 -82t-34.5 -80.5 t-82.5 -33.5q-47 0 -81 33.5t-34 80.5z" />
<glyph unicode="&#xc5;" d="M20 0v35h146l459 1419h69l473 -1419h146v-35h-553v35h172l-152 454h-428l-147 -454h172v-35h-357zM362 524h406l-207 615zM508 1722q0 64 46 110t110 46t109.5 -45.5t45.5 -110.5q0 -63 -45.5 -108t-109.5 -45t-110 45t-46 108zM541 1722q0 -50 36 -85t87 -35t86.5 35 t35.5 85q0 51 -35.5 87t-86.5 36t-87 -36t-36 -87z" />
<glyph unicode="&#xc6;" horiz-adv-x="1959" d="M20 0v37h146l803 1397h766l131 -373h-37q-71 190 -183 264t-298 74h-156v-637h125q63 0 105 9.5t68 26t40.5 50.5t20 69.5t8.5 96.5h36v-541h-36q-3 51 -7 82t-13.5 63t-25 49t-42 32t-64 20.5t-90.5 5.5h-125v-688h223q173 0 282.5 99.5t184.5 303.5h37l-131 -440h-1018 v37h199v506h-475l-289 -506h170v-37h-355zM516 580h453v786z" />
<glyph unicode="&#xc7;" horiz-adv-x="1294" d="M39 717q0 117 31.5 226.5t92 202t144 161.5t194.5 108t236 39q96 0 172 -20h176l132 -373h-37q-65 176 -179 266t-264 90q-78 0 -143.5 -26.5t-112.5 -70.5t-83.5 -104t-59.5 -123.5t-37.5 -133t-20.5 -128.5t-6 -114t6 -114t20.5 -128.5t37.5 -133.5t59.5 -124 t83.5 -104t112.5 -70.5t143.5 -26.5q154 0 280.5 108t199.5 316h36l-155 -440h-189q-88 -20 -172 -20h-18l-37 -95q54 21 109 12.5t99 -33t69.5 -68t19.5 -93.5q-6 -67 -76 -114.5t-182 -47.5q-66 0 -112 24t-70 54l16 29q63 -70 154 -70q64 0 103.5 34t47.5 89 q13 95 -62.5 139.5t-166.5 1.5l-2 6l51 134q-191 15 -339 120.5t-225 266.5t-77 348z" />
<glyph unicode="&#xc8;" horiz-adv-x="1224" d="M61 0v35h172v1362h-172v37h936l133 -375h-36q-71 190 -183.5 264t-298.5 74h-155v-637h125q53 0 90.5 5.5t63 20.5t41 32t25 49.5t13 63.5t6.5 83h37v-543h-37q-2 34 -4 56.5t-6 47.5t-9.5 41.5t-14.5 33.5t-21.5 27.5t-29.5 20t-39.5 14.5t-51 8t-63.5 3h-125v-688h223 q172 0 281 100t186 305h37l-131 -440h-992zM444 1880l162 2l107 -317h-31z" />
<glyph unicode="&#xc9;" horiz-adv-x="1224" d="M61 0v35h172v1362h-172v37h936l133 -375h-36q-71 190 -183.5 264t-298.5 74h-155v-637h125q53 0 90.5 5.5t63 20.5t41 32t25 49.5t13 63.5t6.5 83h37v-543h-37q-2 34 -4 56.5t-6 47.5t-9.5 41.5t-14.5 33.5t-21.5 27.5t-29.5 20t-39.5 14.5t-51 8t-63.5 3h-125v-688h223 q172 0 281 100t186 305h37l-131 -440h-992zM537 1565l108 317l162 -2l-240 -315h-30z" />
<glyph unicode="&#xca;" horiz-adv-x="1224" d="M61 0v35h172v1362h-172v37h936l133 -375h-36q-71 190 -183.5 264t-298.5 74h-155v-637h125q53 0 90.5 5.5t63 20.5t41 32t25 49.5t13 63.5t6.5 83h37v-543h-37q-2 34 -4 56.5t-6 47.5t-9.5 41.5t-14.5 33.5t-21.5 27.5t-29.5 20t-39.5 14.5t-51 8t-63.5 3h-125v-688h223 q172 0 281 100t186 305h37l-131 -440h-992zM344 1585l279 291l280 -291l-14 -14l-266 155l-265 -155z" />
<glyph unicode="&#xcb;" horiz-adv-x="1224" d="M61 0v35h172v1362h-172v37h936l133 -375h-36q-71 190 -183.5 264t-298.5 74h-155v-637h125q53 0 90.5 5.5t63 20.5t41 32t25 49.5t13 63.5t6.5 83h37v-543h-37q-2 34 -4 56.5t-6 47.5t-9.5 41.5t-14.5 33.5t-21.5 27.5t-29.5 20t-39.5 14.5t-51 8t-63.5 3h-125v-688h223 q172 0 281 100t186 305h37l-131 -440h-992zM313 1722q0 47 34 82t81 35t81 -35t34 -82t-34 -80.5t-81 -33.5t-81 33.5t-34 80.5zM700 1722q0 47 34 82t81 35t82 -35t35 -82t-34.5 -80.5t-82.5 -33.5q-47 0 -81 33.5t-34 80.5z" />
<glyph unicode="&#xcc;" horiz-adv-x="690" d="M61 0v35h172v1362h-172v37h568v-37h-172v-1362h172v-35h-568zM174 1880l162 2l106 -317h-30z" />
<glyph unicode="&#xcd;" horiz-adv-x="690" d="M61 0v35h172v1362h-172v37h568v-37h-172v-1362h172v-35h-568zM274 1565l109 317l162 -2l-240 -315h-31z" />
<glyph unicode="&#xce;" horiz-adv-x="690" d="M61 0v35h172v1362h-172v37h568v-37h-172v-1362h172v-35h-568zM66 1585l278 291l281 -291l-15 -14l-266 155l-264 -155z" />
<glyph unicode="&#xcf;" horiz-adv-x="690" d="M35 1722q0 47 34 82t81 35t80.5 -34.5t33.5 -82.5q0 -47 -33.5 -80.5t-80.5 -33.5t-81 33.5t-34 80.5zM61 0v35h172v1362h-172v37h568v-37h-172v-1362h172v-35h-568zM422 1722q0 47 34 82t81 35t81.5 -35t34.5 -82t-34.5 -80.5t-81.5 -33.5t-81 33.5t-34 80.5z" />
<glyph unicode="&#xd0;" horiz-adv-x="1482" d="M61 0v37h172v661h-172v37h172v662h-172v37h560q183 0 327.5 -42.5t235.5 -112t150.5 -164.5t83.5 -193t24 -205t-24 -204.5t-83.5 -192.5t-150.5 -164.5t-235.5 -112.5t-327.5 -43h-560zM457 37h164q110 0 199.5 27t149 70t104.5 104.5t69.5 121.5t39.5 130.5t19 122 t4 104.5t-4 104.5t-19 122t-39.5 130.5t-69.5 121.5t-104.5 104.5t-149 70t-199.5 27h-164v-662h383v-37h-383v-661z" />
<glyph unicode="&#xd1;" horiz-adv-x="1406" d="M61 0v37h172v1360h-172v37h373l703 -1092v1055h-172v37h381v-37h-172v-1417h-50l-856 1312l2 -1255h170v-37h-379zM393 1602q54 225 185 225q41 0 82.5 -16.5t69.5 -37t61.5 -37t60.5 -16.5q47 0 80.5 28.5t50.5 104.5l29 -8q-21 -121 -63 -178t-118 -57q-51 0 -107 27.5 t-103.5 54.5t-79.5 26q-43 0 -73 -28.5t-48 -96.5z" />
<glyph unicode="&#xd2;" horiz-adv-x="1478" d="M41 717q0 117 31.5 226.5t92 202t144 161.5t194.5 108t236 39t236 -39t194.5 -108t144.5 -161.5t92.5 -202t31.5 -226.5t-31.5 -226.5t-92.5 -202t-144.5 -161.5t-194.5 -108t-236 -39t-236 39t-194.5 108t-144 161.5t-92 202t-31.5 226.5zM276 717q0 -65 8.5 -135 t27.5 -152t54.5 -153.5t84.5 -131t123.5 -94.5t164.5 -35q78 0 143.5 26.5t112.5 70.5t83.5 104t59.5 124t37.5 133.5t20.5 128.5t6 114t-6 114t-20.5 128.5t-37.5 133t-59.5 123.5t-83.5 104t-112.5 70.5t-143.5 26.5t-144 -26.5t-112.5 -70.5t-83.5 -104t-59.5 -123.5 t-37.5 -133t-20.5 -128.5t-5.5 -114zM549 1880l162 2l106 -317h-31z" />
<glyph unicode="&#xd3;" horiz-adv-x="1478" d="M41 717q0 117 31.5 226.5t92 202t144 161.5t194.5 108t236 39t236 -39t194.5 -108t144.5 -161.5t92.5 -202t31.5 -226.5t-31.5 -226.5t-92.5 -202t-144.5 -161.5t-194.5 -108t-236 -39t-236 39t-194.5 108t-144 161.5t-92 202t-31.5 226.5zM276 717q0 -65 8.5 -135 t27.5 -152t54.5 -153.5t84.5 -131t123.5 -94.5t164.5 -35q78 0 143.5 26.5t112.5 70.5t83.5 104t59.5 124t37.5 133.5t20.5 128.5t6 114t-6 114t-20.5 128.5t-37.5 133t-59.5 123.5t-83.5 104t-112.5 70.5t-143.5 26.5t-144 -26.5t-112.5 -70.5t-83.5 -104t-59.5 -123.5 t-37.5 -133t-20.5 -128.5t-5.5 -114zM659 1565l109 317l162 -2l-240 -315h-31z" />
<glyph unicode="&#xd4;" horiz-adv-x="1478" d="M41 717q0 117 31.5 226.5t92 202t144 161.5t194.5 108t236 39t236 -39t194.5 -108t144.5 -161.5t92.5 -202t31.5 -226.5t-31.5 -226.5t-92.5 -202t-144.5 -161.5t-194.5 -108t-236 -39t-236 39t-194.5 108t-144 161.5t-92 202t-31.5 226.5zM276 717q0 -65 8.5 -135 t27.5 -152t54.5 -153.5t84.5 -131t123.5 -94.5t164.5 -35q78 0 143.5 26.5t112.5 70.5t83.5 104t59.5 124t37.5 133.5t20.5 128.5t6 114t-6 114t-20.5 128.5t-37.5 133t-59.5 123.5t-83.5 104t-112.5 70.5t-143.5 26.5t-144 -26.5t-112.5 -70.5t-83.5 -104t-59.5 -123.5 t-37.5 -133t-20.5 -128.5t-5.5 -114zM461 1585l278 291l281 -291l-14 -14l-267 155l-264 -155z" />
<glyph unicode="&#xd5;" horiz-adv-x="1478" d="M41 717q0 117 31.5 226.5t92 202t144 161.5t194.5 108t236 39t236 -39t194.5 -108t144.5 -161.5t92.5 -202t31.5 -226.5t-31.5 -226.5t-92.5 -202t-144.5 -161.5t-194.5 -108t-236 -39t-236 39t-194.5 108t-144 161.5t-92 202t-31.5 226.5zM276 717q0 -65 8.5 -135 t27.5 -152t54.5 -153.5t84.5 -131t123.5 -94.5t164.5 -35q78 0 143.5 26.5t112.5 70.5t83.5 104t59.5 124t37.5 133.5t20.5 128.5t6 114t-6 114t-20.5 128.5t-37.5 133t-59.5 123.5t-83.5 104t-112.5 70.5t-143.5 26.5t-144 -26.5t-112.5 -70.5t-83.5 -104t-59.5 -123.5 t-37.5 -133t-20.5 -128.5t-5.5 -114zM430 1602q54 225 184 225q41 0 82.5 -16.5t70 -37t62 -37t60.5 -16.5q47 0 80.5 28.5t50.5 104.5l29 -8q-21 -121 -63 -178t-118 -57q-51 0 -107 27.5t-103.5 54.5t-79.5 26q-43 0 -73 -28.5t-48 -96.5z" />
<glyph unicode="&#xd6;" horiz-adv-x="1478" d="M41 717q0 117 31.5 226.5t92 202t144 161.5t194.5 108t236 39t236 -39t194.5 -108t144.5 -161.5t92.5 -202t31.5 -226.5t-31.5 -226.5t-92.5 -202t-144.5 -161.5t-194.5 -108t-236 -39t-236 39t-194.5 108t-144 161.5t-92 202t-31.5 226.5zM276 717q0 -65 8.5 -135 t27.5 -152t54.5 -153.5t84.5 -131t123.5 -94.5t164.5 -35q78 0 143.5 26.5t112.5 70.5t83.5 104t59.5 124t37.5 133.5t20.5 128.5t6 114t-6 114t-20.5 128.5t-37.5 133t-59.5 123.5t-83.5 104t-112.5 70.5t-143.5 26.5t-144 -26.5t-112.5 -70.5t-83.5 -104t-59.5 -123.5 t-37.5 -133t-20.5 -128.5t-5.5 -114zM430 1722q0 47 34 82t81 35t80.5 -34.5t33.5 -82.5q0 -47 -33.5 -80.5t-80.5 -33.5t-81 33.5t-34 80.5zM817 1722q0 47 34 82t81 35t82 -35t35 -82t-34.5 -80.5t-82.5 -33.5q-47 0 -81 33.5t-34 80.5z" />
<glyph unicode="&#xd7;" horiz-adv-x="653" d="M61 479l240 238l-240 239l27 27l238 -240l239 240l27 -27l-240 -239l240 -238l-27 -26l-239 239l-238 -239z" />
<glyph unicode="&#xd8;" horiz-adv-x="1478" d="M41 717q0 117 31.5 226.5t92 202t144 161.5t194.5 108t236 39q214 0 379 -108l146 225l30 -21l-145 -227q136 -101 211.5 -261.5t75.5 -344.5q0 -147 -49.5 -280.5t-138.5 -235t-221.5 -161.5t-287.5 -60q-214 0 -381 110l-143 -227l-31 20l146 228q-136 103 -212.5 263 t-76.5 343zM276 717q0 -120 29.5 -256.5t93.5 -241.5l658 1030q-120 168 -318 168q-78 0 -144 -26.5t-112.5 -70.5t-83.5 -104t-59.5 -123.5t-37.5 -133t-20.5 -128.5t-5.5 -114zM420 186q122 -170 319 -170q78 0 143.5 26.5t112 70.5t83 104t59 123.5t37.5 133.5t20.5 129 t5.5 114q0 121 -28.5 256.5t-92.5 240.5z" />
<glyph unicode="&#xd9;" horiz-adv-x="1464" d="M61 1397v37h568v-37h-172v-932q0 -235 72.5 -342t246.5 -107q201 0 309.5 117.5t108.5 337.5v926h-172v37h381v-37h-172v-940q0 -235 -128.5 -356t-346.5 -121q-523 0 -523 473v944h-172zM627 1880l161 2l107 -317h-31z" />
<glyph unicode="&#xda;" horiz-adv-x="1464" d="M61 1397v37h568v-37h-172v-932q0 -235 72.5 -342t246.5 -107q201 0 309.5 117.5t108.5 337.5v926h-172v37h381v-37h-172v-940q0 -235 -128.5 -356t-346.5 -121q-523 0 -523 473v944h-172zM707 1565l108 317l162 -2l-240 -315h-30z" />
<glyph unicode="&#xdb;" horiz-adv-x="1464" d="M61 1397v37h568v-37h-172v-932q0 -235 72.5 -342t246.5 -107q201 0 309.5 117.5t108.5 337.5v926h-172v37h381v-37h-172v-940q0 -235 -128.5 -356t-346.5 -121q-523 0 -523 473v944h-172zM506 1585l278 291l281 -291l-14 -14l-267 155l-264 -155z" />
<glyph unicode="&#xdc;" horiz-adv-x="1464" d="M61 1397v37h568v-37h-172v-932q0 -235 72.5 -342t246.5 -107q201 0 309.5 117.5t108.5 337.5v926h-172v37h381v-37h-172v-940q0 -235 -128.5 -356t-346.5 -121q-523 0 -523 473v944h-172zM475 1722q0 47 34 82t81 35t81 -35t34 -82t-34 -80.5t-81 -33.5t-81 33.5 t-34 80.5zM862 1722q0 47 34 82t81 35t82 -35t35 -82t-34.5 -80.5t-82.5 -33.5q-47 0 -81 33.5t-34 80.5z" />
<glyph unicode="&#xdd;" horiz-adv-x="1415" d="M20 1397v37h603v-37h-185l391 -654l367 654h-186v37h385v-37h-158l-387 -686v-674h172v-37h-567v37h172v616l-447 744h-160zM668 1565l108 317l162 -2l-240 -315h-30z" />
<glyph unicode="&#xde;" horiz-adv-x="1208" d="M61 0v37h172v1360h-172v37h566v-37h-170v-219h141q276 0 422.5 -93t146.5 -301q0 -105 -43.5 -183t-122 -123.5t-179 -67t-224.5 -21.5h-141v-352h170v-37h-566zM457 426h170q77 0 136 27.5t90 66t50.5 91t25 93t5.5 80.5q0 32 -1 55.5t-7.5 63.5t-17.5 69t-34 63 t-54.5 55.5t-81 36t-111.5 14.5h-170v-715z" />
<glyph unicode="&#xdf;" horiz-adv-x="1200" d="M61 0v37h170v954q0 226 115.5 344.5t315.5 118.5q77 0 133.5 -20.5t87.5 -56t45 -76.5t14 -89q0 -53 -21 -101t-51 -83.5t-60.5 -68.5t-51.5 -69.5t-21 -72.5q0 -49 24.5 -90t63.5 -71t86.5 -60t94.5 -64t86 -73.5t63.5 -98.5t24.5 -131q0 -108 -86.5 -178.5 t-212.5 -70.5q-27 0 -119 20h-127l-86 248h35q87 -232 286 -232q49 0 85.5 16t54 41t25 47.5t7.5 41.5q0 53 -24 97.5t-62 77t-84.5 62.5t-93 62t-84.5 68.5t-62 89t-24 116.5q0 50 30 99t73 90.5t86.5 84t73.5 95.5t30 108q0 93 -55 149t-164 56q-55 0 -95.5 -21t-65.5 -56 t-40 -89t-20.5 -112t-5.5 -133v-1006h-394z" />
<glyph unicode="&#xe0;" horiz-adv-x="1128" d="M41 324q0 89 36 158t96 108.5t130 59.5t146 20q197 0 284 -154v10q0 54 -1.5 91.5t-6.5 83t-15 76t-27.5 62t-42 50t-61 30t-83.5 11.5q-212 0 -295 -230h-37l88 246h129q71 21 127 21q111 0 189.5 -19t136 -63t84 -120t24.5 -187v-541h145v-37h-354v133 q-87 -153 -284 -153q-76 0 -146 20t-130 59.5t-96 108t-36 156.5zM238 324q0 -81 22.5 -148t77 -113.5t133.5 -46.5q69 0 122.5 26.5t82 66.5t43 79t14.5 72v129q0 33 -14.5 72t-43 79t-82 66.5t-122.5 26.5q-79 0 -133.5 -46.5t-77 -113.5t-22.5 -149zM369 1409l161 2 l107 -317h-31z" />
<glyph unicode="&#xe1;" horiz-adv-x="1128" d="M41 324q0 89 36 158t96 108.5t130 59.5t146 20q197 0 284 -154v10q0 54 -1.5 91.5t-6.5 83t-15 76t-27.5 62t-42 50t-61 30t-83.5 11.5q-212 0 -295 -230h-37l88 246h129q71 21 127 21q111 0 189.5 -19t136 -63t84 -120t24.5 -187v-541h145v-37h-354v133 q-87 -153 -284 -153q-76 0 -146 20t-130 59.5t-96 108t-36 156.5zM238 324q0 -81 22.5 -148t77 -113.5t133.5 -46.5q69 0 122.5 26.5t82 66.5t43 79t14.5 72v129q0 33 -14.5 72t-43 79t-82 66.5t-122.5 26.5q-79 0 -133.5 -46.5t-77 -113.5t-22.5 -149zM483 1094l109 317 l162 -2l-240 -315h-31z" />
<glyph unicode="&#xe2;" horiz-adv-x="1128" d="M41 324q0 89 36 158t96 108.5t130 59.5t146 20q197 0 284 -154v10q0 54 -1.5 91.5t-6.5 83t-15 76t-27.5 62t-42 50t-61 30t-83.5 11.5q-212 0 -295 -230h-37l88 246h129q71 21 127 21q111 0 189.5 -19t136 -63t84 -120t24.5 -187v-541h145v-37h-354v133 q-87 -153 -284 -153q-76 0 -146 20t-130 59.5t-96 108t-36 156.5zM238 324q0 -81 22.5 -148t77 -113.5t133.5 -46.5q69 0 122.5 26.5t82 66.5t43 79t14.5 72v129q0 33 -14.5 72t-43 79t-82 66.5t-122.5 26.5q-79 0 -133.5 -46.5t-77 -113.5t-22.5 -149zM285 1114l278 291 l281 -291l-15 -14l-266 155l-264 -155z" />
<glyph unicode="&#xe3;" horiz-adv-x="1128" d="M41 324q0 89 36 158t96 108.5t130 59.5t146 20q197 0 284 -154v10q0 54 -1.5 91.5t-6.5 83t-15 76t-27.5 62t-42 50t-61 30t-83.5 11.5q-212 0 -295 -230h-37l88 246h129q71 21 127 21q111 0 189.5 -19t136 -63t84 -120t24.5 -187v-541h145v-37h-354v133 q-87 -153 -284 -153q-76 0 -146 20t-130 59.5t-96 108t-36 156.5zM238 324q0 -81 22.5 -148t77 -113.5t133.5 -46.5q69 0 122.5 26.5t82 66.5t43 79t14.5 72v129q0 33 -14.5 72t-43 79t-82 66.5t-122.5 26.5q-79 0 -133.5 -46.5t-77 -113.5t-22.5 -149zM254 1130 q54 226 184 226q52 0 103 -27t95 -53.5t77 -26.5q47 0 80.5 28.5t50.5 104.5l28 -8q-21 -121 -62.5 -178t-117.5 -57q-51 0 -107 27.5t-104 54.5t-80 26q-43 0 -72.5 -28.5t-47.5 -96.5z" />
<glyph unicode="&#xe4;" horiz-adv-x="1128" d="M41 324q0 89 36 158t96 108.5t130 59.5t146 20q197 0 284 -154v10q0 54 -1.5 91.5t-6.5 83t-15 76t-27.5 62t-42 50t-61 30t-83.5 11.5q-212 0 -295 -230h-37l88 246h129q71 21 127 21q111 0 189.5 -19t136 -63t84 -120t24.5 -187v-541h145v-37h-354v133 q-87 -153 -284 -153q-76 0 -146 20t-130 59.5t-96 108t-36 156.5zM238 324q0 -81 22.5 -148t77 -113.5t133.5 -46.5q69 0 122.5 26.5t82 66.5t43 79t14.5 72v129q0 33 -14.5 72t-43 79t-82 66.5t-122.5 26.5q-79 0 -133.5 -46.5t-77 -113.5t-22.5 -149zM254 1251q0 47 34 82 t81 35t80.5 -34.5t33.5 -82.5q0 -47 -33.5 -80.5t-80.5 -33.5t-81 33.5t-34 80.5zM641 1251q0 47 34 82t81 35t81.5 -35t34.5 -82t-34.5 -80.5t-81.5 -33.5t-81 33.5t-34 80.5z" />
<glyph unicode="&#xe5;" horiz-adv-x="1128" d="M41 324q0 89 36 158t96 108.5t130 59.5t146 20q197 0 284 -154v10q0 54 -1.5 91.5t-6.5 83t-15 76t-27.5 62t-42 50t-61 30t-83.5 11.5q-212 0 -295 -230h-37l88 246h129q71 21 127 21q111 0 189.5 -19t136 -63t84 -120t24.5 -187v-541h145v-37h-354v133 q-87 -153 -284 -153q-76 0 -146 20t-130 59.5t-96 108t-36 156.5zM238 324q0 -81 22.5 -148t77 -113.5t133.5 -46.5q69 0 122.5 26.5t82 66.5t43 79t14.5 72v129q0 33 -14.5 72t-43 79t-82 66.5t-122.5 26.5q-79 0 -133.5 -46.5t-77 -113.5t-22.5 -149zM408 1251 q0 65 45.5 110.5t109.5 45.5q65 0 110.5 -45.5t45.5 -110.5q0 -63 -46 -108t-110 -45t-109.5 45t-45.5 108zM440 1251q0 -50 36 -85.5t87 -35.5t87 35.5t36 85.5q0 51 -36 87t-87 36t-87 -36t-36 -87z" />
<glyph unicode="&#xe6;" horiz-adv-x="1718" d="M41 324q0 89 36.5 158t97 108.5t130 59.5t144.5 20q195 0 284 -146v2q0 55 -1.5 91.5t-6.5 83t-14.5 76.5t-26.5 61.5t-41.5 50t-61 30t-83.5 11.5q-211 0 -297 -230h-35l88 246h129q53 21 127 21q139 0 226.5 -32.5t137.5 -107.5q140 140 343 140q132 0 238 -62.5 t164 -166t58 -226.5h-747v-39q0 -47 4 -90t14.5 -98.5t33 -100.5t55 -84.5t86 -61.5t120.5 -22q72 0 134.5 19t101 44t70.5 58.5t45.5 55t21.5 40.5h37q-11 -24 -27 -49t-51.5 -64t-78 -68t-110 -50.5t-143.5 -21.5q-166 0 -284.5 72t-176.5 194q-15 -51 -41 -96 t-65.5 -84.5t-98 -62.5t-128.5 -23q-75 0 -144.5 20t-130 59.5t-97 108t-36.5 156.5zM240 324q0 -81 22.5 -148t76.5 -113.5t132 -46.5q67 0 121 25.5t87.5 68.5t53 92.5t25.5 102.5q-22 68 -25 137q-25 76 -90 132.5t-172 56.5q-59 0 -105 -26t-72.5 -70t-40 -97.5 t-13.5 -113.5zM932 549h528q-3 54 -11.5 103t-26.5 101.5t-43.5 90t-67.5 62t-94 24.5q-60 0 -108.5 -24.5t-78.5 -62t-51.5 -90t-31.5 -101.5t-15 -103z" />
<glyph unicode="&#xe7;" horiz-adv-x="937" d="M39 473q0 97 39 187.5t105 158t160 108t198 40.5q59 0 114 -21h129l88 -246h-36q-83 230 -295 230q-59 0 -106 -22t-77 -61t-51.5 -84.5t-32.5 -99.5t-15.5 -99.5t-4.5 -90.5q0 -55 6 -109.5t25 -119.5t49 -113.5t83.5 -81.5t123.5 -33q104 0 187 67t132 204h37 l-104 -287h-138q-58 -20 -114 -20q-7 0 -22.5 1t-22.5 1l-37 -97q54 21 109 12.5t98.5 -33t69 -68t20.5 -93.5q-6 -66 -76.5 -114t-181.5 -48q-67 0 -114 24t-69 54l15 29q67 -70 153 -70q65 0 104.5 34t47.5 89q7 47 -11 84.5t-51.5 55.5t-77 21t-87.5 -20l-2 6l53 138 q-182 31 -301 170t-119 317z" />
<glyph unicode="&#xe8;" horiz-adv-x="1042" d="M41 473q0 97 39 187.5t105 158t160 108t198 40.5q132 0 237.5 -62.5t163 -166t57.5 -226.5h-745v-39q0 -55 6 -109.5t25 -119.5t49 -113.5t83.5 -81.5t123.5 -33q72 0 135.5 18.5t105 44.5t74 58.5t48 55.5t22.5 40h37q-9 -22 -27 -49t-55 -64.5t-82 -67.5t-113.5 -51 t-144.5 -21q-139 0 -255.5 68.5t-181.5 181.5t-65 243zM258 549h528q-4 55 -12 103.5t-26.5 101t-44 90t-67 62t-93.5 24.5q-61 0 -109.5 -24.5t-78.5 -62t-51.5 -90t-31 -101.5t-14.5 -103zM326 1409l161 2l107 -317h-31z" />
<glyph unicode="&#xe9;" horiz-adv-x="1042" d="M41 473q0 97 39 187.5t105 158t160 108t198 40.5q132 0 237.5 -62.5t163 -166t57.5 -226.5h-745v-39q0 -55 6 -109.5t25 -119.5t49 -113.5t83.5 -81.5t123.5 -33q72 0 135.5 18.5t105 44.5t74 58.5t48 55.5t22.5 40h37q-9 -22 -27 -49t-55 -64.5t-82 -67.5t-113.5 -51 t-144.5 -21q-139 0 -255.5 68.5t-181.5 181.5t-65 243zM258 549h528q-4 55 -12 103.5t-26.5 101t-44 90t-67 62t-93.5 24.5q-61 0 -109.5 -24.5t-78.5 -62t-51.5 -90t-31 -101.5t-14.5 -103zM475 1094l109 317l161 -2l-239 -315h-31z" />
<glyph unicode="&#xea;" horiz-adv-x="1042" d="M41 473q0 97 39 187.5t105 158t160 108t198 40.5q132 0 237.5 -62.5t163 -166t57.5 -226.5h-745v-39q0 -55 6 -109.5t25 -119.5t49 -113.5t83.5 -81.5t123.5 -33q72 0 135.5 18.5t105 44.5t74 58.5t48 55.5t22.5 40h37q-9 -22 -27 -49t-55 -64.5t-82 -67.5t-113.5 -51 t-144.5 -21q-139 0 -255.5 68.5t-181.5 181.5t-65 243zM242 1114l278 291l281 -291l-15 -14l-266 155l-264 -155zM258 549h528q-4 55 -12 103.5t-26.5 101t-44 90t-67 62t-93.5 24.5q-61 0 -109.5 -24.5t-78.5 -62t-51.5 -90t-31 -101.5t-14.5 -103z" />
<glyph unicode="&#xeb;" horiz-adv-x="1042" d="M41 473q0 97 39 187.5t105 158t160 108t198 40.5q132 0 237.5 -62.5t163 -166t57.5 -226.5h-745v-39q0 -55 6 -109.5t25 -119.5t49 -113.5t83.5 -81.5t123.5 -33q72 0 135.5 18.5t105 44.5t74 58.5t48 55.5t22.5 40h37q-9 -22 -27 -49t-55 -64.5t-82 -67.5t-113.5 -51 t-144.5 -21q-139 0 -255.5 68.5t-181.5 181.5t-65 243zM211 1251q0 47 34 82t81 35t80.5 -34.5t33.5 -82.5q0 -47 -33.5 -80.5t-80.5 -33.5t-81 33.5t-34 80.5zM258 549h528q-4 55 -12 103.5t-26.5 101t-44 90t-67 62t-93.5 24.5q-61 0 -109.5 -24.5t-78.5 -62t-51.5 -90 t-31 -101.5t-14.5 -103zM598 1251q0 47 34 82t81 35t81.5 -35t34.5 -82t-34.5 -80.5t-81.5 -33.5t-81 33.5t-34 80.5z" />
<glyph unicode="&#xec;" horiz-adv-x="604" d="M61 0v37h146v872h-146v37h357v-909h145v-37h-502zM121 1409l162 2l106 -317h-31z" />
<glyph unicode="&#xed;" horiz-adv-x="604" d="M61 0v37h146v872h-146v37h357v-909h145v-37h-502zM207 1094l108 317l162 -2l-239 -315h-31z" />
<glyph unicode="&#xee;" horiz-adv-x="604" d="M16 1114l279 291l280 -291l-14 -14l-266 155l-264 -155zM61 0v37h146v872h-146v37h357v-909h145v-37h-502z" />
<glyph unicode="&#xef;" horiz-adv-x="604" d="M-14 1251q0 48 33.5 82.5t80.5 34.5t81 -35t34 -82t-34 -80.5t-81 -33.5t-80.5 33.5t-33.5 80.5zM61 0v37h146v872h-146v37h357v-909h145v-37h-502zM373 1251q0 48 33.5 82.5t80.5 34.5t82 -35t35 -82t-34.5 -80.5t-82.5 -33.5q-47 0 -80.5 33.5t-33.5 80.5z" />
<glyph unicode="&#xf0;" horiz-adv-x="1077" d="M41 451q0 209 130 333.5t325 124.5q63 0 119 -27.5t91 -66.5t61 -78t37 -67l11 -27q0 380 -194 592l-297 -170l-19 33l289 164q-125 123 -291 155l8 37q64 -8 162 -45t193 -104l229 129l18 -31l-215 -123q318 -251 318 -696q0 -131 -29.5 -235.5t-78.5 -172.5 t-115.5 -113t-136.5 -64t-146 -19q-201 0 -335 133t-134 338zM244 451q0 -119 29.5 -216t91 -158t145.5 -61q91 3 157.5 62t100 155.5t33.5 217.5q0 178 -92.5 299.5t-212.5 121.5q-122 0 -187 -115t-65 -306z" />
<glyph unicode="&#xf1;" horiz-adv-x="1257" d="M61 0v37h146v872h-146v37h357v-213q79 234 323 234q50 0 95 -10t89 -36t75.5 -65.5t51 -103.5t19.5 -146v-569h146v-37h-502v37h145v625q0 30 -1 51.5t-4.5 51.5t-9.5 51t-18 44t-28 37.5t-41 23.5t-56 9q-62 0 -112.5 -28.5t-81.5 -71t-52 -96t-29.5 -100t-8.5 -85.5 v-512h145v-37h-502zM330 1130q54 226 184 226q52 0 103 -27t94.5 -53.5t76.5 -26.5q47 0 81 29t51 104l28 -8q-21 -121 -62.5 -178t-117.5 -57q-51 0 -107 27.5t-104 54.5t-80 26q-43 0 -73 -28.5t-48 -96.5z" />
<glyph unicode="&#xf2;" horiz-adv-x="1085" d="M41 473q0 97 39 187.5t105 158t160 108t198 40.5q139 0 255 -68.5t181 -182t65 -243.5t-65 -243t-181 -181.5t-255 -68.5t-255.5 68.5t-181.5 181.5t-65 243zM256 473q0 -55 6 -109.5t25 -119.5t49 -113.5t83.5 -81.5t123.5 -33t123 33t83 81.5t49 113.5t25 119.5 t6 109.5q0 56 -6 110.5t-25 119.5t-49 113.5t-83 81t-123 32.5q-59 0 -106 -22t-77 -61t-51.5 -84.5t-32.5 -99.5t-15.5 -99.5t-4.5 -90.5zM317 1409l162 2l107 -317h-31z" />
<glyph unicode="&#xf3;" horiz-adv-x="1085" d="M41 473q0 97 39 187.5t105 158t160 108t198 40.5q139 0 255 -68.5t181 -182t65 -243.5t-65 -243t-181 -181.5t-255 -68.5t-255.5 68.5t-181.5 181.5t-65 243zM256 473q0 -55 6 -109.5t25 -119.5t49 -113.5t83.5 -81.5t123.5 -33t123 33t83 81.5t49 113.5t25 119.5 t6 109.5q0 56 -6 110.5t-25 119.5t-49 113.5t-83 81t-123 32.5q-59 0 -106 -22t-77 -61t-51.5 -84.5t-32.5 -99.5t-15.5 -99.5t-4.5 -90.5zM457 1094l108 317l162 -2l-240 -315h-30z" />
<glyph unicode="&#xf4;" horiz-adv-x="1085" d="M41 473q0 97 39 187.5t105 158t160 108t198 40.5q139 0 255 -68.5t181 -182t65 -243.5t-65 -243t-181 -181.5t-255 -68.5t-255.5 68.5t-181.5 181.5t-65 243zM256 473q0 -55 6 -109.5t25 -119.5t49 -113.5t83.5 -81.5t123.5 -33t123 33t83 81.5t49 113.5t25 119.5 t6 109.5q0 56 -6 110.5t-25 119.5t-49 113.5t-83 81t-123 32.5q-59 0 -106 -22t-77 -61t-51.5 -84.5t-32.5 -99.5t-15.5 -99.5t-4.5 -90.5zM264 1114l279 291l280 -291l-14 -14l-266 155l-264 -155z" />
<glyph unicode="&#xf5;" horiz-adv-x="1085" d="M41 473q0 97 39 187.5t105 158t160 108t198 40.5q139 0 255 -68.5t181 -182t65 -243.5t-65 -243t-181 -181.5t-255 -68.5t-255.5 68.5t-181.5 181.5t-65 243zM233 1130q54 226 185 226q52 0 103 -27t94.5 -53.5t76.5 -26.5q47 0 80.5 28.5t50.5 104.5l29 -8 q-21 -121 -62.5 -178t-117.5 -57q-51 0 -107 27.5t-104 54.5t-80 26q-43 0 -73 -28.5t-48 -96.5zM256 473q0 -55 6 -109.5t25 -119.5t49 -113.5t83.5 -81.5t123.5 -33t123 33t83 81.5t49 113.5t25 119.5t6 109.5q0 56 -6 110.5t-25 119.5t-49 113.5t-83 81t-123 32.5 q-59 0 -106 -22t-77 -61t-51.5 -84.5t-32.5 -99.5t-15.5 -99.5t-4.5 -90.5z" />
<glyph unicode="&#xf6;" horiz-adv-x="1085" d="M41 473q0 97 39 187.5t105 158t160 108t198 40.5q139 0 255 -68.5t181 -182t65 -243.5t-65 -243t-181 -181.5t-255 -68.5t-255.5 68.5t-181.5 181.5t-65 243zM233 1251q0 47 34 82t81 35t81 -35t34 -82t-34 -80.5t-81 -33.5t-81 33.5t-34 80.5zM256 473q0 -55 6 -109.5 t25 -119.5t49 -113.5t83.5 -81.5t123.5 -33t123 33t83 81.5t49 113.5t25 119.5t6 109.5q0 56 -6 110.5t-25 119.5t-49 113.5t-83 81t-123 32.5q-59 0 -106 -22t-77 -61t-51.5 -84.5t-32.5 -99.5t-15.5 -99.5t-4.5 -90.5zM621 1251q0 48 33.5 82.5t80.5 34.5t82 -35t35 -82 t-34.5 -80.5t-82.5 -33.5q-47 0 -80.5 33.5t-33.5 80.5z" />
<glyph unicode="&#xf7;" horiz-adv-x="835" d="M61 698v37h713v-37h-713zM315 426q0 43 30 72.5t73 29.5q42 0 72 -30t30 -72q0 -41 -30.5 -71.5t-71.5 -30.5q-42 0 -72.5 30t-30.5 72zM315 1008q0 43 30 72.5t73 29.5q42 0 72 -30t30 -72q0 -41 -30.5 -71t-71.5 -30q-43 0 -73 30t-30 71z" />
<glyph unicode="&#xf8;" horiz-adv-x="1085" d="M41 473q0 97 39 187.5t105 158t160 108t198 40.5q137 0 254 -68l98 154l31 -21l-99 -151q101 -70 159 -178t58 -230q0 -130 -65 -243t-181 -181.5t-255 -68.5q-133 0 -254 67l-99 -151l-30 18l98 154q-101 68 -159 175.5t-58 229.5zM256 473q0 -190 63 -311l426 659 q-74 109 -202 109q-59 0 -106 -22t-77 -61t-51.5 -84.5t-32.5 -99.5t-15.5 -99.5t-4.5 -90.5zM340 127q72 -111 203 -111q70 0 123 33t83 81.5t49 113.5t25 119.5t6 109.5q0 192 -63 313z" />
<glyph unicode="&#xf9;" horiz-adv-x="1214" d="M20 911v35h355v-661q0 -43 1.5 -72.5t10.5 -70t25 -65.5t46.5 -43t73.5 -18q76 0 135 42t90 105.5t46 123.5t16 112v512h-145v35h354v-909h146v-37h-355v215q-83 -235 -325 -235q-64 0 -119 17t-104.5 56t-78 112.5t-28.5 174.5v571h-144zM365 1409l161 2l107 -317h-31z " />
<glyph unicode="&#xfa;" horiz-adv-x="1214" d="M20 911v35h355v-661q0 -43 1.5 -72.5t10.5 -70t25 -65.5t46.5 -43t73.5 -18q76 0 135 42t90 105.5t46 123.5t16 112v512h-145v35h354v-909h146v-37h-355v215q-83 -235 -325 -235q-64 0 -119 17t-104.5 56t-78 112.5t-28.5 174.5v571h-144zM506 1094l108 317l162 -2 l-239 -315h-31z" />
<glyph unicode="&#xfb;" horiz-adv-x="1214" d="M20 911v35h355v-661q0 -43 1.5 -72.5t10.5 -70t25 -65.5t46.5 -43t73.5 -18q76 0 135 42t90 105.5t46 123.5t16 112v512h-145v35h354v-909h146v-37h-355v215q-83 -235 -325 -235q-64 0 -119 17t-104.5 56t-78 112.5t-28.5 174.5v571h-144zM315 1114l279 291l280 -291 l-14 -14l-266 155l-264 -155z" />
<glyph unicode="&#xfc;" horiz-adv-x="1214" d="M20 911v35h355v-661q0 -43 1.5 -72.5t10.5 -70t25 -65.5t46.5 -43t73.5 -18q76 0 135 42t90 105.5t46 123.5t16 112v512h-145v35h354v-909h146v-37h-355v215q-83 -235 -325 -235q-64 0 -119 17t-104.5 56t-78 112.5t-28.5 174.5v571h-144zM285 1251q0 48 33.5 82.5 t80.5 34.5t81 -35t34 -82t-34 -80.5t-81 -33.5t-80.5 33.5t-33.5 80.5zM672 1251q0 48 33.5 82.5t80.5 34.5t82 -35t35 -82t-34.5 -80.5t-82.5 -33.5q-47 0 -80.5 33.5t-33.5 80.5z" />
<glyph unicode="&#xfd;" horiz-adv-x="1079" d="M-20 -299l147 199l37 -43q-40 -57 -51.5 -112t2.5 -93t45 -61t71 -23q42 0 80 21.5t67 54t59.5 88t51.5 104.5t50 123q6 15 8 21h-15l-364 931h-119v35h475v-35h-131l254 -665l252 665h-131v35h291v-35h-119l-354 -931q-74 -193 -116 -267q-93 -162 -225 -181 q-19 -3 -40 -3q-81 0 -137 49t-88 123zM567 1094l109 317l162 -2l-240 -315h-31z" />
<glyph unicode="&#xfe;" horiz-adv-x="1292" d="M61 -451h146v1848h-146v37h357v-664q40 85 118 141t193 56q104 0 198 -40.5t160 -108t105 -158t39 -187.5q0 -130 -65 -243t-181.5 -181.5t-255.5 -68.5q-115 0 -193 56t-118 140v-627h145v-36h-502v36zM418 322q0 -37 11 -77.5t36 -81.5t60.5 -73.5t88.5 -53t115 -20.5 q70 0 123.5 33t83.5 81.5t49 113.5t25 119.5t6 109.5q0 45 -4.5 90.5t-15.5 99.5t-32.5 99.5t-51.5 84.5t-77 61t-106 22q-77 0 -139.5 -30.5t-98 -77.5t-54.5 -98t-19 -97v-305z" />
<glyph unicode="&#xff;" horiz-adv-x="1079" d="M-20 -299l147 199l37 -43q-40 -57 -51.5 -112t2.5 -93t45 -61t71 -23q42 0 80 21.5t67 54t59.5 88t51.5 104.5t50 123q6 15 8 21h-15l-364 931h-119v35h475v-35h-131l254 -665l252 665h-131v35h291v-35h-119l-354 -931q-74 -193 -116 -267q-93 -162 -225 -181 q-19 -3 -40 -3q-81 0 -137 49t-88 123zM319 1251q0 47 34 82t81 35t81 -35t34 -82t-34 -80.5t-81 -33.5t-81 33.5t-34 80.5zM707 1251q0 48 33.5 82.5t80.5 34.5t82 -35t35 -82t-34.5 -80.5t-82.5 -33.5q-47 0 -80.5 33.5t-33.5 80.5z" />
<glyph unicode="&#x152;" horiz-adv-x="1904" d="M41 717q0 117 31.5 226.5t92 202t144 161.5t194.5 108t236 39q96 0 172 -20h766l133 -373h-36q-71 189 -183 262.5t-299 73.5h-157v-635h127q53 0 90.5 5.5t63 20t41 31.5t25 49.5t13 63t6.5 82.5h37v-541h-37q-2 34 -4 56.5t-6 47.5t-9.5 41.5t-14.5 33.5t-21.5 27.5 t-29.5 20t-39.5 14.5t-51 8t-63.5 3h-127v-688h223q173 0 283 99.5t186 303.5h37l-133 -440h-820q-88 -20 -172 -20q-125 0 -236 39t-194.5 108t-144 161.5t-92 202t-31.5 226.5zM276 717q0 -65 8.5 -135t27.5 -152t54.5 -153.5t84.5 -131t123.5 -94.5t164.5 -35 q98 0 172 41v1321q-76 39 -172 39q-78 0 -144 -26.5t-112.5 -70.5t-83.5 -104t-59.5 -123.5t-37.5 -133t-20.5 -128.5t-5.5 -114z" />
<glyph unicode="&#x153;" horiz-adv-x="1830" d="M41 473q0 97 38.5 187.5t104 158t159.5 108t198 40.5q120 0 222.5 -51t172.5 -138q69 87 172 138t221 51q200 0 330.5 -133.5t130.5 -321.5h-746q0 -7 -1 -20t-1 -19q0 -46 4 -90t15 -99t33.5 -100t55.5 -84.5t86 -61.5t120 -22q72 0 134.5 18.5t101.5 44t71 59t46 55 t22 40.5h34q-10 -23 -26 -49t-51 -64.5t-78 -67.5t-110.5 -50.5t-143.5 -21.5q-137 0 -244.5 50t-177.5 138q-69 -87 -171.5 -137.5t-221.5 -50.5q-139 0 -255 68.5t-180.5 181.5t-64.5 243zM254 473q0 -55 6 -109.5t25 -119.5t49 -113.5t83.5 -81.5t123.5 -33t123 33 t83 81.5t49 113.5t25 119.5t6 109.5q0 56 -6 110.5t-25 119.5t-49 113.5t-83 81t-123 32.5q-59 0 -106 -22t-77 -61t-51.5 -84.5t-32.5 -99.5t-15.5 -99.5t-4.5 -90.5zM1047 549h528q-4 54 -12.5 103t-27 101.5t-44.5 90t-68 62t-94 24.5q-60 0 -108 -24.5t-78 -62 t-51.5 -90t-31 -101.5t-13.5 -103z" />
<glyph unicode="&#x178;" horiz-adv-x="1415" d="M20 1397v37h603v-37h-185l391 -654l367 654h-186v37h385v-37h-158l-387 -686v-674h172v-37h-567v37h172v616l-447 744h-160zM492 1722q0 48 33.5 82.5t80.5 34.5t81 -35t34 -82t-34 -80.5t-81 -33.5t-80.5 33.5t-33.5 80.5zM879 1722q0 48 33.5 82.5t80.5 34.5t82 -35 t35 -82t-34.5 -80.5t-82.5 -33.5q-47 0 -80.5 33.5t-33.5 80.5z" />
<glyph unicode="&#x2c6;" horiz-adv-x="681" d="M61 1176l279 290l281 -290l-15 -15l-266 156l-264 -156z" />
<glyph unicode="&#x2dc;" horiz-adv-x="741" d="M61 1192q54 225 185 225q41 0 82.5 -16.5t69.5 -36.5t61.5 -36.5t60.5 -16.5q47 0 80.5 28.5t50.5 104.5l29 -8q-21 -121 -62.5 -178.5t-117.5 -57.5q-41 0 -85.5 17.5t-76 38t-67.5 37.5t-62 16q-43 0 -73 -28.5t-48 -96.5z" />
<glyph unicode="&#x2000;" horiz-adv-x="941" />
<glyph unicode="&#x2001;" horiz-adv-x="1882" />
<glyph unicode="&#x2002;" horiz-adv-x="941" />
<glyph unicode="&#x2003;" horiz-adv-x="1882" />
<glyph unicode="&#x2004;" horiz-adv-x="627" />
<glyph unicode="&#x2005;" horiz-adv-x="470" />
<glyph unicode="&#x2006;" horiz-adv-x="313" />
<glyph unicode="&#x2007;" horiz-adv-x="313" />
<glyph unicode="&#x2008;" horiz-adv-x="235" />
<glyph unicode="&#x2009;" horiz-adv-x="376" />
<glyph unicode="&#x200a;" horiz-adv-x="104" />
<glyph unicode="&#x2010;" horiz-adv-x="808" d="M61 698v37h687v-37h-687z" />
<glyph unicode="&#x2011;" horiz-adv-x="808" d="M61 698v37h687v-37h-687z" />
<glyph unicode="&#x2012;" horiz-adv-x="808" d="M61 698v37h687v-37h-687z" />
<glyph unicode="&#x2013;" horiz-adv-x="913" d="M61 698v37h791v-37h-791z" />
<glyph unicode="&#x2014;" horiz-adv-x="993" d="M61 698v37h871v-37h-871z" />
<glyph unicode="&#x2018;" horiz-adv-x="380" d="M61 1114q0 208 168 340l23 -24q-62 -52 -93.5 -103t-49.5 -121q30 37 81 37q53 0 91 -37.5t38 -91.5t-37.5 -91.5t-91.5 -37.5t-91.5 37.5t-37.5 91.5z" />
<glyph unicode="&#x2019;" horiz-adv-x="380" d="M61 1327q0 53 37.5 90t91.5 37t91.5 -37t37.5 -90q0 -208 -167 -342l-23 27q62 52 93.5 103t49.5 120q-31 -37 -82 -37q-53 0 -91 37.5t-38 91.5z" />
<glyph unicode="&#x201a;" horiz-adv-x="380" d="M61 109q0 54 37.5 91.5t91.5 37.5t91.5 -37.5t37.5 -91.5q0 -209 -167 -340l-23 24q62 52 93.5 103t49.5 120q-31 -36 -82 -36q-53 0 -91 37.5t-38 91.5z" />
<glyph unicode="&#x201c;" horiz-adv-x="747" d="M61 1114q0 208 168 340l23 -24q-62 -52 -93.5 -103.5t-47.5 -120.5q28 37 79 37q53 0 91 -37.5t38 -91.5t-37.5 -91.5t-91.5 -37.5q-53 0 -91 37.5t-38 91.5zM430 1114q0 208 168 340l23 -24q-63 -53 -96 -104.5t-48 -119.5q29 37 80 37q53 0 91 -37.5t38 -91.5 t-37.5 -91.5t-91.5 -37.5q-53 0 -90 37.5t-37 91.5z" />
<glyph unicode="&#x201d;" horiz-adv-x="747" d="M61 1327q0 53 37.5 90t91.5 37q52 0 89.5 -37t37.5 -90q0 -208 -167 -342l-23 27q63 53 95.5 104t47.5 119q-29 -37 -80 -37q-53 0 -91 37.5t-38 91.5zM428 1327q0 53 37.5 90t91.5 37q53 0 91 -37.5t38 -89.5q0 -207 -168 -342l-22 27q63 52 94 103.5t47 119.5 q-29 -37 -80 -37q-53 0 -91 37.5t-38 91.5z" />
<glyph unicode="&#x201e;" horiz-adv-x="747" d="M61 109q0 54 37.5 91.5t91.5 37.5t91.5 -37.5t37.5 -91.5q0 -209 -167 -340l-23 24q62 52 93.5 103t49.5 120q-31 -36 -82 -36q-53 0 -91 37.5t-38 91.5zM430 109q0 54 37 91.5t90 37.5q54 0 91.5 -37.5t37.5 -91.5q0 -208 -168 -340l-22 24q62 52 93.5 103t49.5 120 q-29 -36 -82 -36q-51 0 -89 38t-38 91z" />
<glyph unicode="&#x2022;" horiz-adv-x="481" d="M61 473q0 75 53 127.5t128 52.5q74 0 126 -52.5t52 -127.5q0 -73 -52 -125.5t-126 -52.5q-75 0 -128 52t-53 126z" />
<glyph unicode="&#x2026;" horiz-adv-x="1204" d="M61 109q0 54 37 91.5t90 37.5q54 0 91.5 -37.5t37.5 -91.5t-37.5 -91.5t-91.5 -37.5q-53 0 -90 37.5t-37 91.5zM473 109q0 54 37.5 91.5t91.5 37.5t91.5 -37.5t37.5 -91.5t-37.5 -91.5t-91.5 -37.5t-91.5 37.5t-37.5 91.5zM887 109q0 54 37.5 91.5t91.5 37.5 q53 0 90 -37.5t37 -91.5t-37 -91.5t-90 -37.5q-54 0 -91.5 37.5t-37.5 91.5z" />
<glyph unicode="&#x202f;" horiz-adv-x="376" />
<glyph unicode="&#x2039;" horiz-adv-x="389" d="M61 717l242 239l25 -24l-215 -215l215 -215l-25 -27z" />
<glyph unicode="&#x203a;" horiz-adv-x="389" d="M61 502l215 215l-215 215l27 24l240 -239l-240 -242z" />
<glyph unicode="&#x205f;" horiz-adv-x="470" />
<glyph unicode="&#x20ac;" horiz-adv-x="1570" d="M61 590v37h238q-4 62 -4 90q0 30 4 92h-238v35h244q19 127 76 238t143.5 194t207 130.5t259.5 47.5q95 0 174 -20h174l134 -373h-37q-65 175 -179.5 265.5t-265.5 90.5q-76 0 -140.5 -25t-111 -69.5t-82.5 -99.5t-59.5 -121.5t-38 -129t-22.5 -128.5h573v-35h-575 q-5 -41 -5 -92q0 -49 5 -90h534v-37h-532q8 -66 22.5 -128.5t38 -129.5t59.5 -122t82.5 -99.5t111 -69.5t140.5 -25q154 0 280.5 108t201.5 316h36l-155 -440h-189q-92 -20 -174 -20q-139 0 -259.5 48t-207 131t-143.5 193.5t-76 237.5h-244z" />
<glyph unicode="&#x25fc;" horiz-adv-x="942" d="M0 0v942h942v-942h-942z" />
</font>
</defs>
</svg>
